0
SECTION
2
HEADER
9
$INSUNITS
70
4
9
$ACADVER
1
AC1014
9
$HANDSEED
5
FFFF
0
ENDSEC
0
SECTION
2
TABLES
0
TABLE
2
VPORT
5
8
100
AcDbSymbolTable
0
ENDTAB
0
TABLE
2
LTYPE
5
5
100
AcDbSymbolTable
0
LTYPE
5
14
100
AcDbSymbolTableRecord
100
AcDbLinetypeTableRecord
2
BYBLOCK
70
0
0
LTYPE
5
15
100
AcDbSymbolTableRecord
100
AcDbLinetypeTableRecord
2
BYLAYER
70
0
0
ENDTAB
0
TABLE
2
LAYER
5
2
100
AcDbSymbolTable
70
2
0
LAYER
5
50
100
AcDbSymbolTableRecord
100
AcDbLayerTableRecord
2
0
70
0
6
CONTINUOUS
0
ENDTAB
0
TABLE
2
STYLE
5
3
100
AcDbSymbolTable
70
1
0
STYLE
5
11
100
AcDbSymbolTableRecord
100
AcDbTextStyleTableRecord
2
STANDARD
70
0
0
ENDTAB
0
TABLE
2
VIEW
5
6
100
AcDbSymbolTable
70
0
0
ENDTAB
0
TABLE
2
UCS
5
7
100
AcDbSymbolTable
70
0
0
ENDTAB
0
TABLE
2
APPID
5
9
100
AcDbSymbolTable
70
2
0
APPID
5
12
100
AcDbSymbolTableRecord
100
AcDbRegAppTableRecord
2
ACAD
70
0
0
ENDTAB
0
TABLE
2
DIMSTYLE
5
A
100
AcDbSymbolTable
70
1
0
ENDTAB
0
TABLE
2
BLOCK_RECORD
5
1
100
AcDbSymbolTable
70
1
0
BLOCK_RECORD
5
1F
100
AcDbSymbolTableRecord
100
AcDbBlockTableRecord
2
*MODEL_SPACE
0
BLOCK_RECORD
5
1B
100
AcDbSymbolTableRecord
100
AcDbBlockTableRecord
2
*PAPER_SPACE
0
ENDTAB
0
ENDSEC
0
SECTION
2
BLOCKS
0
BLOCK
5
20
100
AcDbEntity
100
AcDbBlockBegin
2
*MODEL_SPACE
0
ENDBLK
5
21
100
AcDbEntity
100
AcDbBlockEnd
0
BLOCK
5
1C
100
AcDbEntity
100
AcDbBlockBegin
2
*PAPER_SPACE
0
ENDBLK
5
1D
100
AcDbEntity
100
AcDbBlockEnd
0
ENDSEC
0
SECTION
2
ENTITIES
0
LWPOLYLINE
5
100
100
AcDbEntity
8
0
100
AcDbPolyline
90
8
70
1
43
0.0
10
182.04407167428064
20
127.37432479866573
42
-0.41421356237309681
10
185.0440716742807
20
124.37432479866575
10
185.04407167428053
20
-269.62567520133467
42
-0.41421356237309503
10
182.04407167428062
20
-272.62567520133456
10
-211.95592832571893
20
-272.62567520133507
42
-0.41421356237309853
10
-214.95592832571887
20
-269.62567520133513
10
-214.95592832571887
20
124.37432479866531
42
-0.41421356237309331
10
-211.95592832571884
20
127.3743247986653
0
CIRCLE
5
101
100
AcDbEntity
8
0
100
AcDbCircle
10
146.0440716742807
20
88.374324798665697
30
0
40
3.2000000000000033
210
5.0487097934144699e-29
220
5.048709793414475e-29
230
1
0
CIRCLE
5
102
100
AcDbEntity
8
0
100
AcDbCircle
10
146.04407167428067
20
-233.62567520133464
30
0
40
3.2000000000000033
210
5.0487097934144699e-29
220
5.048709793414475e-29
230
1
0
CIRCLE
5
103
100
AcDbEntity
8
0
100
AcDbCircle
10
-175.95592832571893
20
-72.625675201334843
30
0
40
3.2000000000000126
210
7.5730646901217088e-29
220
5.0487097934144756e-29
230
1
0
CIRCLE
5
104
100
AcDbEntity
8
0
100
AcDbCircle
10
-175.95592832571893
20
88.374324798665342
30
0
40
3.2000000000000033
210
5.0487097934144699e-29
220
5.048709793414475e-29
230
1
0
CIRCLE
5
105
100
AcDbEntity
8
0
100
AcDbCircle
10
-175.95592832571893
20
-233.62567520133499
30
0
40
3.2000000000000033
210
5.0487097934144699e-29
220
5.048709793414475e-29
230
1
0
CIRCLE
5
106
100
AcDbEntity
8
0
100
AcDbCircle
10
146.04407167428067
20
-72.625675201334502
30
0
40
3.2000000000000126
210
7.5730646901217088e-29
220
5.0487097934144756e-29
230
1
0
SPLINE
5
107
100
AcDbEntity
8
0
100
AcDbSpline
70
0
71
3
72
83
73
79
74
0
42
0.000000001
43
0.0000000001
44
0.0000000001
40
0
40
0
40
0
40
0
40
0.0184525739876082
40
0.0184525739876082
40
0.0184525739876082
40
0.0366933023604872
40
0.0366933023604872
40
0.0366933023604872
40
0.050559213553034499
40
0.050559213553034499
40
0.050559213553034499
40
0.057921905121109202
40
0.057921905121109202
40
0.057921905121109202
40
0.061100350512015802
40
0.061100350512015802
40
0.061100350512015802
40
0.078854238648838504
40
0.078854238648838504
40
0.078854238648838504
40
0.096247600635441605
40
0.096247600635441605
40
0.096247600635441605
40
0.10909084845179801
40
0.10909084845179801
40
0.10909084845179801
40
0.115650121983468
40
0.115650121983468
40
0.115650121983468
40
0.1190822268853
40
0.1190822268853
40
0.1190822268853
40
0.13592241501696101
40
0.13592241501696101
40
0.13592241501696101
40
0.14762059190086599
40
0.14762059190086599
40
0.14762059190086599
40
0.164394003209411
40
0.164394003209411
40
0.164394003209411
40
0.16930171212238701
40
0.16930171212238701
40
0.16930171212238701
40
0.17307350627763399
40
0.17307350627763399
40
0.17307350627763399
40
0.189843211480273
40
0.189843211480273
40
0.189843211480273
40
0.206600126665621
40
0.206600126665621
40
0.206600126665621
40
0.21698623810463799
40
0.21698623810463799
40
0.21698623810463799
40
0.22235440285623101
40
0.22235440285623101
40
0.22235440285623101
40
0.22627160863828999
40
0.22627160863828999
40
0.22627160863828999
40
0.24236466797046899
40
0.24236466797046899
40
0.24236466797046899
40
0.25309579670308902
40
0.25309579670308902
40
0.25309579670308902
40
0.25807855325983198
40
0.25807855325983198
40
0.25807855325983198
40
0.27354643294961201
40
0.27354643294961201
40
0.27354643294961201
40
0.28180788236922999
40
0.28180788236922999
40
0.28180788236922999
40
0.28634738033226598
40
0.28634738033226598
40
0.28634738033226598
40
0.28634738033226598
10
144.03472110249967
20
-167.36362720944919
30
0
10
144.01361121696871
20
-167.42139985125669
30
0
10
143.98884055556667
20
-167.47758909688974
30
0
10
143.96071596265782
20
-167.53199440346233
30
0
10
143.93291425541673
20
-167.58577510743891
30
0
10
143.90183409969174
20
-167.63781326006321
30
0
10
143.86772702755965
20
-167.68788305205999
30
0
10
143.84180012247373
20
-167.72594421250625
30
0
10
143.81412311902662
20
-167.76286738959456
30
0
10
143.78479445362657
20
-167.79853724951948
30
0
10
143.76922115920362
20
-167.81747766917576
30
0
10
143.75318202603063
20
-167.83606445686763
30
0
10
143.73669098806195
20
-167.85427845605184
30
0
10
143.72957187093769
20
-167.86214136884965
30
0
10
143.72236820620162
20
-167.86993499403539
30
0
10
143.71509169889427
20
-167.87764688731869
30
0
10
143.67444720736668
20
-167.92072332055426
30
0
10
143.63145547662765
20
-167.96133955574675
30
0
10
143.58635819645644
20
-167.99928902940826
30
0
10
143.54217670153071
20
-168.03646786750329
30
0
10
143.4959733596497
20
-168.07108759544118
30
0
10
143.44795234225771
20
-168.10291100199834
30
0
10
143.41249365248666
20
-168.12640938586966
30
0
10
143.37604337883565
20
-168.14838228139237
30
0
10
143.33867973631615
20
-168.16871652380328
30
0
10
143.31959746406466
20
-168.17910158060045
30
0
10
143.30027692228168
20
-168.18905896747845
30
0
10
143.28072844615619
20
-168.19857191954986
30
0
10
143.27049981025471
20
-168.20354952099882
30
0
10
143.26021586932566
20
-168.20840189736813
30
0
10
143.24988548258239
20
-168.21312398553474
30
0
10
143.19919773812069
20
-168.23629368907655
30
0
10
143.14733896467769
20
-168.25635684449125
30
0
10
143.09450023903932
20
-168.27310046578634
30
0
10
143.05779537838069
20
-168.28473156171327
30
0
10
143.02061726047069
20
-168.29475987866709
30
0
10
142.98302783363914
20
-168.30309926838285
30
0
10
142.92913029700966
20
-168.31505668834268
30
0
10
142.87438614145566
20
-168.32354334776156
30
0
10
142.81911067051954
20
-168.32861572138967
30
0
10
142.80293769792667
20
-168.33009984008245
30
0
10
142.78671932934367
20
-168.3312913793493
30
0
10
142.77046374243446
20
-168.33219105761972
30
0
10
142.75797059567668
20
-168.33288250067437
30
0
10
142.74545235676268
20
-168.33340149101247
30
0
10
142.73293757415144
20
-168.33374797544084
30
0
10
142.67729582743166
20
-168.33528847353864
30
0
10
142.62162360106868
20
-168.33343044353342
30
0
10
142.56623777415322
20
-168.32828156016998
30
0
10
142.51089418922564
20
-168.32313660378716
30
0
10
142.45583542570967
20
-168.31470534965359
30
0
10
142.40139290772686
20
-168.303045946216
30
0
10
142.36764886519066
20
-168.29581932591771
30
0
10
142.33414193175167
20
-168.28735162012015
30
0
10
142.30095685518972
20
-168.27764831684198
30
0
10
142.28380481909565
20
-168.27263306826339
30
0
10
142.26673885202968
20
-168.26728763814936
30
0
10
142.249771288407
20
-168.26161217907247
30
0
10
142.23738988034563
20
-168.25747073741775
30
0
10
142.22505950971868
20
-168.25315289008461
30
0
10
142.21280449185349
20
-168.24866614172612
30
0
10
142.16245719314264
20
-168.23023323021749
30
0
10
142.11330256676771
20
-168.20892811951506
30
0
10
142.06565390672091
20
-168.18479496643812
30
0
10
142.03388096073564
20
-168.1687025649222
30
0
10
142.0027781680877
20
-168.15135183755089
30
0
10
141.97244777487694
20
-168.13274694023085
30
0
10
141.95836454380171
20
-168.12410817757888
30
0
10
141.94444445006266
20
-168.11519633697435
30
0
10
141.93072155142255
20
-168.10602754146171
30
0
10
141.88812180914263
20
-168.07756501790175
30
0
10
141.84737647173074
20
-168.04660427021082
30
0
10
141.80878620692945
20
-168.01316891410244
30
0
10
141.78817500958763
20
-167.99531097178217
30
0
10
141.76817922722864
20
-167.97674656422362
30
0
10
141.74884981921312
20
-167.9574758944959
30
0
10
141.73822870373368
20
-167.94688705450767
30
0
10
141.72780886005671
20
-167.93608492741777
30
0
10
141.71759332307144
20
-167.9250766814352
30
0
0
ARC
5
108
100
AcDbEntity
8
0
100
AcDbCircle
10
142.5440716742807
20
-166.96511336759198
30
7.0064923216240854e-44
40
1.2645000000000355
210
4.1176244013095566e-29
220
4.7825168131486507e-29
230
1
100
AcDbArc
50
130.73783499400369
51
229.27239238133507
0
SPLINE
5
109
100
AcDbEntity
8
0
100
AcDbSpline
70
0
71
3
72
80
73
76
74
0
42
0.000000001
43
0.0000000001
44
0.0000000001
40
0
40
0
40
0
40
0
40
0.0151320498287216
40
0.0151320498287216
40
0.0151320498287216
40
0.043737880606310897
40
0.043737880606310897
40
0.043737880606310897
40
0.049443459556724099
40
0.049443459556724099
40
0.049443459556724099
40
0.052040364087898201
40
0.052040364087898201
40
0.052040364087898201
40
0.068339281219042605
40
0.068339281219042605
40
0.068339281219042605
40
0.084947470672828901
40
0.084947470672828901
40
0.084947470672828901
40
0.097030829443383898
40
0.097030829443383898
40
0.097030829443383898
40
0.101258172678082
40
0.101258172678082
40
0.101258172678082
40
0.10426330503141901
40
0.10426330503141901
40
0.10426330503141901
40
0.121342226680967
40
0.121342226680967
40
0.121342226680967
40
0.133280905755049
40
0.133280905755049
40
0.133280905755049
40
0.149920375465282
40
0.149920375465282
40
0.149920375465282
40
0.15448287129520599
40
0.15448287129520599
40
0.15448287129520599
40
0.158580685597875
40
0.158580685597875
40
0.158580685597875
40
0.19305017295468699
40
0.19305017295468699
40
0.19305017295468699
40
0.20387807375880301
40
0.20387807375880301
40
0.20387807375880301
40
0.20925828032034999
40
0.20925828032034999
40
0.20925828032034999
40
0.21265059563484201
40
0.21265059563484201
40
0.21265059563484201
40
0.21591581037353799
40
0.21591581037353799
40
0.21591581037353799
40
0.23391420417027001
40
0.23391420417027001
40
0.23391420417027001
40
0.246354008086552
40
0.246354008086552
40
0.246354008086552
40
0.251351777700481
40
0.251351777700481
40
0.251351777700481
40
0.26954177588515799
40
0.26954177588515799
40
0.26954177588515799
40
0.279673379387614
40
0.279673379387614
40
0.279673379387614
40
0.28511143056915128
40
0.28511143056915128
40
0.28511143056915128
40
0.28511143056915128
10
141.71886037534472
20
-166.00699721486961
30
0
10
141.75328713612376
20
-165.97013248242817
30
0
10
141.78995372355774
20
-165.93564841359634
30
0
10
141.82853986869384
20
-165.90354563102892
30
0
10
141.9014836370938
20
-165.84285809853947
30
0
10
141.98126420758035
20
-165.79065710761762
30
0
10
142.06610791064344
20
-165.74719530172638
30
0
10
142.08303042025469
20
-165.73852662271588
30
0
10
142.10015561967171
20
-165.73020682625042
30
0
10
142.11747110398636
20
-165.722239852347
30
0
10
142.12535227784568
20
-165.71861366983168
30
0
10
142.13327161398371
20
-165.71506123835741
30
0
10
142.14121891529007
20
-165.71158664682315
30
0
10
142.19109845604868
20
-165.68977911450878
30
0
10
142.24217125093068
20
-165.67099088295157
30
0
10
142.29410511616567
20
-165.65524788669995
30
0
10
142.34702442767266
20
-165.63920616673698
30
0
10
142.40083872157368
20
-165.62632574832543
30
0
10
142.45523122980327
20
-165.61667486294812
30
0
10
142.4948047301657
20
-165.60965332030543
30
0
10
142.53468509284266
20
-165.604342106253
30
0
10
142.5747570824534
20
-165.60078343839479
30
0
10
142.58877620225266
20
-165.59953844428509
30
0
10
142.60281880789768
20
-165.59850808011916
30
0
10
142.61688004029827
20
-165.59769458322256
30
0
10
142.62687588451269
20
-165.59711628481918
30
0
10
142.6368811778467
20
-165.59664769027256
30
0
10
142.64687961176389
20
-165.59628987717502
30
0
10
142.70370322197869
20
-165.59425633550711
30
0
10
142.76041939383566
20
-165.59578966886539
30
0
10
142.81669410292801
20
-165.60094650422667
30
0
10
142.85603181438464
20
-165.60455128699218
30
0
10
142.89515449351867
20
-165.60992755774876
30
0
10
142.93395283429919
20
-165.61710902692857
30
0
10
142.98802781296467
20
-165.62711816095003
30
0
10
143.04147336510164
20
-165.64063158443781
30
0
10
143.09408680682759
20
-165.65742295701295
30
0
10
143.10851326468065
20
-165.66202710418153
30
0
10
143.12287712847063
20
-165.66687800100911
30
0
10
143.13717410987007
20
-165.67197164082012
30
0
10
143.15001497089168
20
-165.67654650309905
30
0
10
143.16280601000364
20
-165.6813189609133
30
0
10
143.17551696554068
20
-165.68627522932809
30
0
10
143.28243740868805
20
-165.72796575477435
30
0
10
143.38404308026421
20
-165.7827035179173
30
0
10
143.47859610160501
20
-165.84834239943223
30
0
10
143.50829804423066
20
-165.86896154269306
30
0
10
143.53730326090664
20
-165.89066264564391
30
0
10
143.5655535769086
20
-165.91339503451712
30
0
10
143.57959069622368
20
-165.92469038621897
30
0
10
143.59344138265266
20
-165.93624045963759
30
0
10
143.60709813137569
20
-165.9480396213329
30
0
10
143.61570895278365
20
-165.95547920129314
30
0
10
143.62424266851062
20
-165.96301781442006
30
0
10
143.63269733751565
20
-165.97065412159048
30
0
10
143.64083523369766
20
-165.97800431766913
30
0
10
143.64889272433058
20
-165.98543855351681
30
0
10
143.65686801767799
20
-165.99295480475598
30
0
10
143.70082912951861
20
-166.03438560196332
30
0
10
143.74229812883672
20
-166.07830772758598
30
0
10
143.78102348070468
20
-166.12446570444979
30
0
10
143.8077889681847
20
-166.15636833908724
30
0
10
143.83324348687768
20
-166.18934014332359
30
0
10
143.85729584336201
20
-166.22330882579519
30
0
10
143.86695902914772
20
-166.23695595803494
30
0
10
143.87639724622576
20
-166.25076661436054
30
0
10
143.88559091333835
20
-166.26471537759335
30
0
10
143.91905239736161
20
-166.31548361972602
30
0
10
143.94931678489561
20
-166.36813225735159
30
0
10
143.97612015180269
20
-166.42242329028784
30
0
10
143.99104929491071
20
-166.45266272263214
30
0
10
144.00490415733267
20
-166.48341240975429
30
0
10
144.0176338761724
20
-166.51463593619977
30
0
10
144.02446644345164
20
-166.53139489590811
30
0
10
144.03097479470327
20
-166.54829041637919
30
0
10
144.0371613792058
20
-166.56531389468194
30
0
0
ARC
5
110
100
AcDbEntity
8
0
100
AcDbCircle
10
142.5440716742807
20
-166.96511336759198
30
7.0064923216240854e-44
40
1.5430000000004402
210
4.3867644579911007e-44
220
-1.1727682742718283e-44
230
1
100
AcDbArc
50
-14.967559016110988
51
14.984435269335789
0
SPLINE
5
111
100
AcDbEntity
8
0
100
AcDbSpline
70
0
71
3
72
83
73
79
74
0
42
0.000000001
43
0.0000000001
44
0.0000000001
40
0
40
0
40
0
40
0
40
0.018452573987608301
40
0.018452573987608301
40
0.018452573987608301
40
0.036693338782745499
40
0.036693338782745499
40
0.036693338782745499
40
0.050559245422510599
40
0.050559245422510599
40
0.050559245422510599
40
0.057921999966587999
40
0.057921999966587999
40
0.057921999966587999
40
0.061100395718289603
40
0.061100395718289603
40
0.061100395718289603
40
0.078854291196333498
40
0.078854291196333498
40
0.078854291196333498
40
0.096247509752114199
40
0.096247509752114199
40
0.096247509752114199
40
0.109090780289302
40
0.109090780289302
40
0.109090780289302
40
0.115650130232737
40
0.115650130232737
40
0.115650130232737
40
0.11908225718389399
40
0.11908225718389399
40
0.11908225718389399
40
0.13592231180462999
40
0.13592231180462999
40
0.13592231180462999
40
0.14762059190086599
40
0.14762059190086599
40
0.14762059190086599
40
0.164394003209411
40
0.164394003209411
40
0.164394003209411
40
0.16930171333087199
40
0.16930171333087199
40
0.16930171333087199
40
0.173073496187264
40
0.173073496187264
40
0.173073496187264
40
0.189843220704567
40
0.189843220704567
40
0.189843220704567
40
0.20660013428888799
40
0.20660013428888799
40
0.20660013428888799
40
0.216986417155244
40
0.216986417155244
40
0.216986417155244
40
0.22235442231831801
40
0.22235442231831801
40
0.22235442231831801
40
0.22627157399628001
40
0.22627157399628001
40
0.22627157399628001
40
0.24236452148034399
40
0.24236452148034399
40
0.24236452148034399
40
0.25309552158669302
40
0.25309552158669302
40
0.25309552158669302
40
0.25807851720131703
40
0.25807851720131703
40
0.25807851720131703
40
0.27354618663192598
40
0.27354618663192598
40
0.27354618663192598
40
0.28180788236922499
40
0.28180788236922499
40
0.28180788236922499
40
0.28634738033226198
40
0.28634738033226198
40
0.28634738033226198
40
0.28634738033226198
10
144.03472110249967
20
-142.36362720944913
30
0
10
144.01361121696871
20
-142.42139985125664
30
0
10
143.98884101248572
20
-142.47758916051507
30
0
10
143.96071722404599
20
-142.53199457743236
30
0
10
143.93291625652668
20
-142.58577549787393
30
0
10
143.90183716735174
20
-142.63781390571506
30
0
10
143.86773138878891
20
-142.68788397453272
30
0
10
143.84180552730558
20
-142.7259452569115
30
0
10
143.8141297068847
20
-142.76286857371355
30
0
10
143.78480231952301
20
-142.79853858427944
30
0
10
143.76922956541665
20
-142.81747925214952
30
0
10
143.75319099107062
20
-142.83606628485538
30
0
10
143.73670052406763
20
-142.85428052429489
30
0
10
143.72958182549471
20
-142.86214335075587
30
0
10
143.72237858601366
20
-142.86993689169401
30
0
10
143.71510250895352
20
-142.87764870345563
30
0
10
143.67445976912273
20
-142.92072537189398
30
0
10
143.63146987546364
20
-142.96134184661258
30
0
10
143.58637442081621
20
-142.99929154864796
30
0
10
143.54219509693064
20
-143.03647028851628
30
0
10
143.49599395022767
20
-143.07108995181417
30
0
10
143.44797505458675
20
-143.10291331876823
30
0
10
143.41251757639571
20
-143.12641190874365
30
0
10
143.37606845443966
20
-143.14838499351521
30
0
10
143.33870586537682
20
-143.1687194017268
30
0
10
143.31962394261063
20
-143.17910464580979
30
0
10
143.30030371995269
20
-143.18906220540225
30
0
10
143.28075552758648
20
-143.19857531419092
30
0
10
143.27052709360368
20
-143.20355297163326
30
0
10
143.26024334558565
20
-143.20840540076387
30
0
10
143.24991314178783
20
-143.21312753834118
30
0
10
143.19922702245864
20
-143.23629715177941
30
0
10
143.14736967006769
20
-143.25636022550864
30
0
10
143.09453207004847
20
-143.27310376513483
30
0
10
143.05782737647365
20
-143.2847349991635
30
0
10
143.02064926718867
20
-143.29476340058602
30
0
10
142.9830596615609
20
-143.303102814108
30
0
10
142.9291623440977
20
-143.31506016270328
30
0
10
142.87441803720967
20
-143.32354668725202
30
0
10
142.81914211408366
20
-143.32861887596869
30
0
10
142.80296900520267
20
-143.33010294092392
30
0
10
142.78675047454269
20
-143.33129442202403
30
0
10
142.77049470150331
20
-143.33219403803528
30
0
10
142.75800145219765
20
-143.33288543099954
30
0
10
142.74548309661566
20
-143.33340436993515
30
0
10
142.7329681841932
20
-143.33375080190586
30
0
10
142.67732562955163
20
-143.33529107316065
30
0
10
142.62165233538065
20
-143.33343276688692
30
0
10
142.56626525766086
20
-143.32828357271529
30
0
10
142.51092049191467
20
-143.32313831217903
30
0
10
142.45586036393371
20
-143.31470672754944
30
0
10
142.40141637157751
20
-143.30304698150411
30
0
10
142.36767085500969
20
-143.29582002888142
30
0
10
142.33416241314967
20
-143.28735194491483
30
0
10
142.30097581579551
20
-143.27764822130325
30
0
10
142.2838237866977
20
-143.27263298735301
30
0
10
142.26675781538069
20
-143.26728759112643
30
0
10
142.24979023766792
20
-143.26161218566415
30
0
10
142.23740862224668
20
-143.25747071721275
30
0
10
142.22507804066871
20
-143.253152848002
30
0
10
142.21282280913388
20
-143.24866608279439
30
0
10
142.1624742871187
20
-143.23023297557879
30
0
10
142.11331840774164
20
-143.20892771462977
30
0
10
142.0656685272744
20
-143.18479446942735
30
0
10
142.03389492751168
20
-143.1687020875259
30
0
10
142.00279148882669
20
-143.15135141830899
30
0
10
141.97246047461169
20
-143.13274662178895
30
0
10
141.95837611068265
20
-143.12410738792897
30
0
10
141.9444549084667
20
-143.11519505225439
30
0
10
141.93073093251809
20
-143.10602573995286
30
0
10
141.88813046892869
20
-143.07756336459573
30
0
10
141.84738448052661
20
-143.04660286397427
30
0
10
141.80879368678484
20
-143.01316786563814
30
0
10
141.78818131220663
20
-142.99530933921505
30
0
10
141.76818444084961
20
-142.9767443178572
30
0
10
141.74885404688266
20
-142.95747300670232
30
0
10
141.73823270632158
20
-142.94688412997357
30
0
10
141.72781265669266
20
-142.9360819705158
30
0
10
141.71759693190174
20
-142.92507369638048
30
0
0
ARC
5
112
100
AcDbEntity
8
0
100
AcDbCircle
10
142.54407167428064
20
-141.96511336759193
30
1.0860063098517332e-43
40
1.2644999999999931
210
8.2352423457326013e-30
220
9.5650391855078229e-30
230
1
100
AcDbArc
50
130.73783499399894
51
229.27243105890665
0
SPLINE
5
113
100
AcDbEntity
8
0
100
AcDbSpline
70
0
71
3
72
86
73
82
74
0
42
0.000000001
43
0.0000000001
44
0.0000000001
40
0
40
0
40
0
40
0
40
0.015132606320009999
40
0.015132606320009999
40
0.015132606320009999
40
0.030946978024437601
40
0.030946978024437601
40
0.030946978024437601
40
0.043738718990760601
40
0.043738718990760601
40
0.043738718990760601
40
0.049446382598656101
40
0.049446382598656101
40
0.049446382598656101
40
0.052043740743338202
40
0.052043740743338202
40
0.052043740743338202
40
0.068343131036499596
40
0.068343131036499596
40
0.068343131036499596
40
0.0849514857242991
40
0.0849514857242991
40
0.0849514857242991
40
0.097033840731979695
40
0.097033840731979695
40
0.097033840731979695
40
0.10127002225882401
40
0.10127002225882401
40
0.10127002225882401
40
0.104268113245145
40
0.104268113245145
40
0.104268113245145
40
0.121346984901598
40
0.121346984901598
40
0.121346984901598
40
0.13328090575502199
40
0.13328090575502199
40
0.13328090575502199
40
0.14992012164292201
40
0.14992012164292201
40
0.14992012164292201
40
0.15448259717120499
40
0.15448259717120499
40
0.15448259717120499
40
0.15858063895612301
40
0.15858063895612301
40
0.15858063895612301
40
0.17561240624444899
40
0.17561240624444899
40
0.17561240624444899
40
0.193049704573105
40
0.193049704573105
40
0.193049704573105
40
0.20387766392491799
40
0.20387766392491799
40
0.20387766392491799
40
0.20925809466249301
40
0.20925809466249301
40
0.20925809466249301
40
0.212649884242541
40
0.212649884242541
40
0.212649884242541
40
0.215915626172588
40
0.215915626172588
40
0.215915626172588
40
0.23391400845384999
40
0.23391400845384999
40
0.23391400845384999
40
0.24635367199497099
40
0.24635367199497099
40
0.24635367199497099
40
0.25135164153186701
40
0.25135164153186701
40
0.25135164153186701
40
0.269541649957942
40
0.269541649957942
40
0.269541649957942
40
0.279673379387606
40
0.279673379387606
40
0.279673379387606
40
0.28511149591632612
40
0.28511149591632612
40
0.28511149591632612
40
0.28511149591632612
10
141.7188603753446
20
-141.00699721486941
30
0
10
141.75328840219169
20
-140.97013112670271
30
0
10
141.78995614098466
20
-140.9356456237924
30
0
10
141.82854335236573
20
-140.90354138919474
30
0
10
141.86886902336465
20
-140.86999077084934
30
0
10
141.91129147365669
20
-140.8390402012422
30
0
10
141.95549493989685
20
-140.81071855783583
30
0
10
141.99124971413167
20
-140.78781008363487
30
0
10
142.02817090770364
20
-140.76662206933312
30
0
10
142.06610988261411
20
-140.74718654352804
30
0
10
142.08303821996765
20
-140.73851442894801
30
0
10
142.10016937820467
20
-140.73019143933615
30
0
10
142.11749094189494
20
-140.72222152203634
30
0
10
142.12537337989767
20
-140.71859469133412
30
0
10
142.13329396752269
20
-140.71504164578081
30
0
10
142.14124253027347
20
-140.71156646375735
30
0
10
142.19112272365768
20
-140.68975840149361
30
0
10
142.24219608688574
20
-140.67096975090783
30
0
10
142.29413048553479
20
-140.65522652163639
30
0
10
142.34704933082577
20
-140.63918487032495
30
0
10
142.40086308814367
20
-140.62630459293806
30
0
10
142.45525505701568
20
-140.61665399992921
30
0
10
142.49482448395966
20
-140.60963332310965
30
0
10
142.53470071460066
20
-140.60432273703671
30
0
10
142.57476857046896
20
-140.60076447848991
30
0
10
142.58881671842866
20
-140.59951692127825
30
0
10
142.60288845422869
20
-140.59848490123275
30
0
10
142.61697888945426
20
-140.59767067126739
30
0
10
142.62695117382768
20
-140.59709441278923
30
0
10
142.63693279188766
20
-140.59662735548753
30
0
10
142.64690758453011
20
-140.59627056542365
30
0
10
142.70372981044571
20
-140.59423808150734
30
0
10
142.76044465768865
20
-140.59577261772864
30
0
10
142.81671818378882
20
-140.60093088156768
30
0
10
142.85603950548565
20
-140.60453523633035
30
0
10
142.89514603408367
20
-140.60990978863538
30
0
10
142.93392861951321
20
-140.61708823445474
30
0
10
142.98800236606968
20
-140.62709699110692
30
0
10
143.04144697047769
20
-140.64061018860517
30
0
10
143.09405970965869
20
-140.65740144769859
30
0
10
143.10848613074768
20
-140.66200561349697
30
0
10
143.12284997487865
20
-140.66685654274767
30
0
10
143.13714695282971
20
-140.67195022784844
30
0
10
143.14998858073065
20
-140.67652540512944
30
0
10
143.16278039463964
20
-140.68129821235274
30
0
10
143.17549212831506
20
-140.68625486193216
30
0
10
143.22832304150566
20
-140.70685506724891
30
0
10
143.27985542470867
20
-140.73065420169394
30
0
10
143.32988164022544
20
-140.75736677435191
30
0
10
143.38109899362468
20
-140.78471538067544
30
0
10
143.43073850055868
20
-140.81511816367268
30
0
10
143.47857164247284
20
-140.84832420816736
30
0
10
143.50827436972764
20
-140.86894401366968
30
0
10
143.53728040447669
20
-140.89064582759744
30
0
10
143.56553155886243
20
-140.91337896264497
30
0
10
143.57956960375068
20
-140.92467509468582
30
0
10
143.59342120725267
20
-140.93622597561057
30
0
10
143.60707886212575
20
-140.9480259697396
30
0
10
143.61568856156171
20
-140.95546461156653
30
0
10
143.62422118129467
20
-140.96300225752623
30
0
10
143.63267478081747
20
-140.97063756873155
30
0
10
143.6408142227757
20
-140.977989132077
30
0
10
143.64887324117768
20
-140.98542476935057
30
0
10
143.65685003365786
20
-140.99294244633703
30
0
10
143.70081228282265
20
-141.03437438651108
30
0
10
143.74228245410461
20
-141.07829767196731
30
0
10
143.78100895725873
20
-141.12445676904554
30
0
10
143.80777495554864
20
-141.15635983833488
30
0
10
143.83323000313271
20
-141.18933203560823
30
0
10
143.85728289160011
20
-141.22330105332071
30
0
10
143.86694678672373
20
-141.236949020178
30
0
10
143.87638569124962
20
-141.2507605195128
30
0
10
143.88558002007298
20
-141.26471012980417
30
0
10
143.91904259273062
20
-141.31547945259967
30
0
10
143.94930798124864
20
-141.36812907575398
30
0
10
143.97611220585503
20
-141.42242094247155
30
0
10
143.99104200384758
20
-141.45266119805191
30
0
10
144.00489745122374
20
-141.4834116734452
30
0
10
144.01762767355291
20
-141.51463594204336
30
0
10
144.02446050825728
20
-141.53139529318273
30
0
10
144.03096910372489
20
-141.54829119168647
30
0
10
144.03715591018525
20
-141.56531503512883
30
0
0
ARC
5
114
100
AcDbEntity
8
0
100
AcDbCircle
10
142.54407167428064
20
-141.96511336759193
30
1.0860063098517332e-43
40
1.5430000000004962
210
6.5102451027057398e-30
220
2.4351709076621993e-29
230
1
100
AcDbArc
50
-14.967559016110428
51
14.984458595689173
0
CIRCLE
5
115
100
AcDbEntity
8
0
100
AcDbCircle
10
-14.955928325719153
20
-267.62567520133484
30
7.5730646901216999e-29
40
1.6000000000000005
210
0
220
0
230
1
0
CIRCLE
5
116
100
AcDbEntity
8
0
100
AcDbCircle
10
-14.955928325719153
20
-267.62567520133484
30
7.5730646901216999e-29
40
2.7000000000000002
210
0
220
0
230
1
0
CIRCLE
5
117
100
AcDbEntity
8
0
100
AcDbCircle
10
-209.0772486692785
20
121.49564514222504
30
5.2432420281861074e-29
40
1.6000000000000036
210
0
220
0
230
1
0
CIRCLE
5
118
100
AcDbEntity
8
0
100
AcDbCircle
10
-209.0772486692785
20
121.49564514222504
30
5.2432420281861074e-29
40
2.6999999999999873
210
0
220
0
230
1
0
CIRCLE
5
119
100
AcDbEntity
8
0
100
AcDbCircle
10
179.16539201784033
20
121.4956451422254
30
-9.3615898725598732e-30
40
1.600000000000007
210
0
220
0
230
1
0
CIRCLE
5
120
100
AcDbEntity
8
0
100
AcDbCircle
10
179.16539201784033
20
121.4956451422254
30
-9.3615898725598732e-30
40
2.7000000000000064
210
0
220
0
230
1
0
LINE
5
121
100
AcDbEntity
8
0
100
AcDbLine
10
-173.69318662592195
20
-231.36293350153804
30
-2.2847852359464387e-28
11
-178.21867002551588
21
-235.88841690113196
31
2.2847852359464392e-28
0
LINE
5
122
100
AcDbEntity
8
0
100
AcDbLine
10
148.30681337407762
20
-235.88841690113159
30
-3.5032461608120427e-43
11
143.78132997448373
21
-231.36293350153767
31
-6.0255833965967134e-43
0
ENDSEC
0
SECTION
2
OBJECTS
0
DICTIONARY
5
C
100
AcDbDictionary
3
ACAD_GROUP
350
D
3
ACAD_MLINESTYLE
350
17
0
DICTIONARY
5
D
100
AcDbDictionary
0
DICTIONARY
5
1A
330
C
100
AcDbDictionary
0
DICTIONARY
5
17
100
AcDbDictionary
0
ENDSEC
0
EOF
