%TF.GenerationSoftware,KiCad,Pcbnew,7.0.1*%
%TF.CreationDate,2025-03-05T17:14:23+01:00*%
%TF.ProjectId,hextrudort_fila_sens,68657874-7275-4646-9f72-745f66696c61,rev?*%
%TF.SameCoordinates,Original*%
%TF.FileFunction,Legend,Top*%
%TF.FilePolarity,Positive*%
%FSLAX46Y46*%
G04 Gerber Fmt 4.6, Leading zero omitted, Abs format (unit mm)*
G04 Created by KiCad (PCBNEW 7.0.1) date 2025-03-05 17:14:23*
%MOMM*%
%LPD*%
G01*
G04 APERTURE LIST*
%ADD10C,0.150000*%
%ADD11C,0.254000*%
%ADD12C,0.120000*%
%ADD13C,0.200000*%
G04 APERTURE END LIST*
D10*
%TO.C,D1*%
X123261905Y-84142619D02*
X123261905Y-83142619D01*
X123261905Y-83142619D02*
X123500000Y-83142619D01*
X123500000Y-83142619D02*
X123642857Y-83190238D01*
X123642857Y-83190238D02*
X123738095Y-83285476D01*
X123738095Y-83285476D02*
X123785714Y-83380714D01*
X123785714Y-83380714D02*
X123833333Y-83571190D01*
X123833333Y-83571190D02*
X123833333Y-83714047D01*
X123833333Y-83714047D02*
X123785714Y-83904523D01*
X123785714Y-83904523D02*
X123738095Y-83999761D01*
X123738095Y-83999761D02*
X123642857Y-84095000D01*
X123642857Y-84095000D02*
X123500000Y-84142619D01*
X123500000Y-84142619D02*
X123261905Y-84142619D01*
X124785714Y-84142619D02*
X124214286Y-84142619D01*
X124500000Y-84142619D02*
X124500000Y-83142619D01*
X124500000Y-83142619D02*
X124404762Y-83285476D01*
X124404762Y-83285476D02*
X124309524Y-83380714D01*
X124309524Y-83380714D02*
X124214286Y-83428333D01*
%TO.C,J1*%
X116766666Y-80562619D02*
X116766666Y-81276904D01*
X116766666Y-81276904D02*
X116719047Y-81419761D01*
X116719047Y-81419761D02*
X116623809Y-81515000D01*
X116623809Y-81515000D02*
X116480952Y-81562619D01*
X116480952Y-81562619D02*
X116385714Y-81562619D01*
X117766666Y-81562619D02*
X117195238Y-81562619D01*
X117480952Y-81562619D02*
X117480952Y-80562619D01*
X117480952Y-80562619D02*
X117385714Y-80705476D01*
X117385714Y-80705476D02*
X117290476Y-80800714D01*
X117290476Y-80800714D02*
X117195238Y-80848333D01*
D11*
%TO.C,IC2*%
X129687526Y-86789762D02*
X128417526Y-86789762D01*
X129566573Y-85459285D02*
X129627050Y-85519761D01*
X129627050Y-85519761D02*
X129687526Y-85701190D01*
X129687526Y-85701190D02*
X129687526Y-85822142D01*
X129687526Y-85822142D02*
X129627050Y-86003571D01*
X129627050Y-86003571D02*
X129506097Y-86124523D01*
X129506097Y-86124523D02*
X129385145Y-86185000D01*
X129385145Y-86185000D02*
X129143240Y-86245476D01*
X129143240Y-86245476D02*
X128961811Y-86245476D01*
X128961811Y-86245476D02*
X128719907Y-86185000D01*
X128719907Y-86185000D02*
X128598954Y-86124523D01*
X128598954Y-86124523D02*
X128478002Y-86003571D01*
X128478002Y-86003571D02*
X128417526Y-85822142D01*
X128417526Y-85822142D02*
X128417526Y-85701190D01*
X128417526Y-85701190D02*
X128478002Y-85519761D01*
X128478002Y-85519761D02*
X128538478Y-85459285D01*
X128538478Y-84975476D02*
X128478002Y-84915000D01*
X128478002Y-84915000D02*
X128417526Y-84794047D01*
X128417526Y-84794047D02*
X128417526Y-84491666D01*
X128417526Y-84491666D02*
X128478002Y-84370714D01*
X128478002Y-84370714D02*
X128538478Y-84310238D01*
X128538478Y-84310238D02*
X128659430Y-84249761D01*
X128659430Y-84249761D02*
X128780383Y-84249761D01*
X128780383Y-84249761D02*
X128961811Y-84310238D01*
X128961811Y-84310238D02*
X129687526Y-85035952D01*
X129687526Y-85035952D02*
X129687526Y-84249761D01*
D10*
%TO.C,R2*%
X119991524Y-84882206D02*
X119688479Y-84579160D01*
X119840001Y-84730683D02*
X120370332Y-84200353D01*
X120370332Y-84200353D02*
X120244063Y-84225607D01*
X120244063Y-84225607D02*
X120143047Y-84225607D01*
X120143047Y-84225607D02*
X120067286Y-84200353D01*
X120218809Y-85109490D02*
X120749139Y-84579160D01*
X120471347Y-84957968D02*
X120420839Y-85311521D01*
X120774393Y-84957968D02*
X120370332Y-84957968D01*
D12*
%TO.C,D1*%
X121540000Y-84365000D02*
X121540000Y-86635000D01*
X121540000Y-86635000D02*
X125600000Y-86635000D01*
X125600000Y-84365000D02*
X121540000Y-84365000D01*
%TO.C,J1*%
X117665697Y-77909361D02*
X117665697Y-79159361D01*
X117965697Y-78209361D02*
X117965697Y-82929361D01*
X117965697Y-79519361D02*
X118575697Y-79519361D01*
X117965697Y-80819361D02*
X118575697Y-80819361D01*
X117965697Y-82929361D02*
X126085697Y-82929361D01*
X118575697Y-78819361D02*
X118575697Y-82319361D01*
X118575697Y-82319361D02*
X125475697Y-82319361D01*
X118915697Y-77909361D02*
X117665697Y-77909361D01*
X119425697Y-78009361D02*
X119425697Y-78209361D01*
X119725697Y-78009361D02*
X119425697Y-78009361D01*
X119725697Y-78109361D02*
X119425697Y-78109361D01*
X119725697Y-78209361D02*
X119725697Y-78009361D01*
X120525697Y-78209361D02*
X120525697Y-78819361D01*
X120525697Y-78819361D02*
X118575697Y-78819361D01*
X120925697Y-81819361D02*
X121125697Y-81819361D01*
X120925697Y-82319361D02*
X120925697Y-81819361D01*
X121025697Y-82319361D02*
X121025697Y-81819361D01*
X121125697Y-81819361D02*
X121125697Y-82319361D01*
X122925697Y-81819361D02*
X123125697Y-81819361D01*
X122925697Y-82319361D02*
X122925697Y-81819361D01*
X123025697Y-82319361D02*
X123025697Y-81819361D01*
X123125697Y-81819361D02*
X123125697Y-82319361D01*
X123525697Y-78819361D02*
X123525697Y-78209361D01*
X125475697Y-78819361D02*
X123525697Y-78819361D01*
X125475697Y-82319361D02*
X125475697Y-78819361D01*
X126085697Y-78209361D02*
X117965697Y-78209361D01*
X126085697Y-79519361D02*
X125475697Y-79519361D01*
X126085697Y-80819361D02*
X125475697Y-80819361D01*
X126085697Y-82929361D02*
X126085697Y-78209361D01*
D13*
%TO.C,IC2*%
X132750000Y-83700000D02*
X132750000Y-84900000D01*
X132700000Y-85250000D02*
X132700000Y-85850000D01*
X129800000Y-85250000D02*
X132700000Y-85250000D01*
X132700000Y-85850000D02*
X129800000Y-85850000D01*
X129800000Y-85850000D02*
X129800000Y-85250000D01*
D12*
%TO.C,R2*%
X119310654Y-86049580D02*
X118950420Y-85689346D01*
X120049580Y-85310654D02*
X119689346Y-84950420D01*
%TD*%
M02*
