%TF.GenerationSoftware,KiCad,Pcbnew,7.0.1*%
%TF.CreationDate,2025-03-05T17:14:20+01:00*%
%TF.ProjectId,hextrudort_fila_sens,68657874-7275-4646-9f72-745f66696c61,rev?*%
%TF.SameCoordinates,Original*%
%TF.FileFunction,Drillmap*%
%TF.FilePolarity,Positive*%
%FSLAX45Y45*%
G04 Gerber Fmt 4.5, Leading zero omitted, Abs format (unit mm)*
G04 Created by KiCad (PCBNEW 7.0.1) date 2025-03-05 17:14:20*
%MOMM*%
%LPD*%
G01*
G04 APERTURE LIST*
%ADD10C,0.100000*%
%ADD11C,0.200000*%
G04 APERTURE END LIST*
D10*
X11459998Y-8714015D02*
G75*
G03*
X11440365Y-8694015I-19999J5D01*
G01*
X11610779Y-8239833D02*
G75*
G03*
X11610779Y-8239833I-160780J0D01*
G01*
X13286687Y-7785552D02*
X11445874Y-7785218D01*
X11460003Y-8714015D02*
X11460000Y-8720000D01*
X11460000Y-8720000D02*
G75*
G03*
X11490000Y-8750000I30000J0D01*
G01*
X11490000Y-8750000D02*
X13420000Y-8750000D01*
X13420000Y-8750000D02*
G75*
G03*
X13448460Y-8729487I0J30000D01*
G01*
X13448510Y-7903496D02*
X13286687Y-7785552D01*
X11445874Y-7785219D02*
G75*
G03*
X11440401Y-8694362I-2602J-454572D01*
G01*
X13448460Y-8729487D02*
X13448510Y-7903496D01*
D11*
X11231311Y-9067524D02*
X11231311Y-8867524D01*
X11231311Y-8867524D02*
X11278930Y-8867524D01*
X11278930Y-8867524D02*
X11307502Y-8877048D01*
X11307502Y-8877048D02*
X11326549Y-8896095D01*
X11326549Y-8896095D02*
X11336073Y-8915143D01*
X11336073Y-8915143D02*
X11345597Y-8953238D01*
X11345597Y-8953238D02*
X11345597Y-8981810D01*
X11345597Y-8981810D02*
X11336073Y-9019905D01*
X11336073Y-9019905D02*
X11326549Y-9038952D01*
X11326549Y-9038952D02*
X11307502Y-9058000D01*
X11307502Y-9058000D02*
X11278930Y-9067524D01*
X11278930Y-9067524D02*
X11231311Y-9067524D01*
X11431311Y-9067524D02*
X11431311Y-8934190D01*
X11431311Y-8972286D02*
X11440835Y-8953238D01*
X11440835Y-8953238D02*
X11450359Y-8943714D01*
X11450359Y-8943714D02*
X11469406Y-8934190D01*
X11469406Y-8934190D02*
X11488454Y-8934190D01*
X11555121Y-9067524D02*
X11555121Y-8934190D01*
X11555121Y-8867524D02*
X11545597Y-8877048D01*
X11545597Y-8877048D02*
X11555121Y-8886571D01*
X11555121Y-8886571D02*
X11564644Y-8877048D01*
X11564644Y-8877048D02*
X11555121Y-8867524D01*
X11555121Y-8867524D02*
X11555121Y-8886571D01*
X11678930Y-9067524D02*
X11659882Y-9058000D01*
X11659882Y-9058000D02*
X11650359Y-9038952D01*
X11650359Y-9038952D02*
X11650359Y-8867524D01*
X11783692Y-9067524D02*
X11764644Y-9058000D01*
X11764644Y-9058000D02*
X11755121Y-9038952D01*
X11755121Y-9038952D02*
X11755121Y-8867524D01*
X12012263Y-9067524D02*
X12012263Y-8867524D01*
X12012263Y-8867524D02*
X12078930Y-9010381D01*
X12078930Y-9010381D02*
X12145597Y-8867524D01*
X12145597Y-8867524D02*
X12145597Y-9067524D01*
X12326549Y-9067524D02*
X12326549Y-8962762D01*
X12326549Y-8962762D02*
X12317025Y-8943714D01*
X12317025Y-8943714D02*
X12297978Y-8934190D01*
X12297978Y-8934190D02*
X12259882Y-8934190D01*
X12259882Y-8934190D02*
X12240835Y-8943714D01*
X12326549Y-9058000D02*
X12307502Y-9067524D01*
X12307502Y-9067524D02*
X12259882Y-9067524D01*
X12259882Y-9067524D02*
X12240835Y-9058000D01*
X12240835Y-9058000D02*
X12231311Y-9038952D01*
X12231311Y-9038952D02*
X12231311Y-9019905D01*
X12231311Y-9019905D02*
X12240835Y-9000857D01*
X12240835Y-9000857D02*
X12259882Y-8991333D01*
X12259882Y-8991333D02*
X12307502Y-8991333D01*
X12307502Y-8991333D02*
X12326549Y-8981810D01*
X12421787Y-8934190D02*
X12421787Y-9134190D01*
X12421787Y-8943714D02*
X12440835Y-8934190D01*
X12440835Y-8934190D02*
X12478930Y-8934190D01*
X12478930Y-8934190D02*
X12497978Y-8943714D01*
X12497978Y-8943714D02*
X12507502Y-8953238D01*
X12507502Y-8953238D02*
X12517025Y-8972286D01*
X12517025Y-8972286D02*
X12517025Y-9029429D01*
X12517025Y-9029429D02*
X12507502Y-9048476D01*
X12507502Y-9048476D02*
X12497978Y-9058000D01*
X12497978Y-9058000D02*
X12478930Y-9067524D01*
X12478930Y-9067524D02*
X12440835Y-9067524D01*
X12440835Y-9067524D02*
X12421787Y-9058000D01*
X12602740Y-9048476D02*
X12612263Y-9058000D01*
X12612263Y-9058000D02*
X12602740Y-9067524D01*
X12602740Y-9067524D02*
X12593216Y-9058000D01*
X12593216Y-9058000D02*
X12602740Y-9048476D01*
X12602740Y-9048476D02*
X12602740Y-9067524D01*
X12602740Y-8943714D02*
X12612263Y-8953238D01*
X12612263Y-8953238D02*
X12602740Y-8962762D01*
X12602740Y-8962762D02*
X12593216Y-8953238D01*
X12593216Y-8953238D02*
X12602740Y-8943714D01*
X12602740Y-8943714D02*
X12602740Y-8962762D01*
M02*
