%TF.GenerationSoftware,KiCad,Pcbnew,7.0.1*%
%TF.CreationDate,2025-03-05T17:14:23+01:00*%
%TF.ProjectId,hextrudort_fila_sens,68657874-7275-4646-9f72-745f66696c61,rev?*%
%TF.SameCoordinates,Original*%
%TF.FileFunction,Copper,L2,Bot*%
%TF.FilePolarity,Positive*%
%FSLAX46Y46*%
G04 Gerber Fmt 4.6, Leading zero omitted, Abs format (unit mm)*
G04 Created by KiCad (PCBNEW 7.0.1) date 2025-03-05 17:14:23*
%MOMM*%
%LPD*%
G01*
G04 APERTURE LIST*
G04 Aperture macros list*
%AMRoundRect*
0 Rectangle with rounded corners*
0 $1 Rounding radius*
0 $2 $3 $4 $5 $6 $7 $8 $9 X,Y pos of 4 corners*
0 Add a 4 corners polygon primitive as box body*
4,1,4,$2,$3,$4,$5,$6,$7,$8,$9,$2,$3,0*
0 Add four circle primitives for the rounded corners*
1,1,$1+$1,$2,$3*
1,1,$1+$1,$4,$5*
1,1,$1+$1,$6,$7*
1,1,$1+$1,$8,$9*
0 Add four rect primitives between the rounded corners*
20,1,$1+$1,$2,$3,$4,$5,0*
20,1,$1+$1,$4,$5,$6,$7,0*
20,1,$1+$1,$6,$7,$8,$9,0*
20,1,$1+$1,$8,$9,$2,$3,0*%
G04 Aperture macros list end*
%TA.AperFunction,ComponentPad*%
%ADD10RoundRect,0.250000X-0.350000X-0.625000X0.350000X-0.625000X0.350000X0.625000X-0.350000X0.625000X0*%
%TD*%
%TA.AperFunction,ComponentPad*%
%ADD11O,1.200000X1.750000*%
%TD*%
%TA.AperFunction,ComponentPad*%
%ADD12C,1.500000*%
%TD*%
%TA.AperFunction,SMDPad,CuDef*%
%ADD13RoundRect,0.237500X-0.044194X-0.380070X0.380070X0.044194X0.044194X0.380070X-0.380070X-0.044194X0*%
%TD*%
%TA.AperFunction,SMDPad,CuDef*%
%ADD14RoundRect,0.237500X0.008839X0.344715X-0.344715X-0.008839X-0.008839X-0.344715X0.344715X0.008839X0*%
%TD*%
%TA.AperFunction,SMDPad,CuDef*%
%ADD15RoundRect,0.237500X-0.008839X-0.344715X0.344715X0.008839X0.008839X0.344715X-0.344715X-0.008839X0*%
%TD*%
%TA.AperFunction,ViaPad*%
%ADD16C,0.800000*%
%TD*%
%TA.AperFunction,Conductor*%
%ADD17C,0.500000*%
%TD*%
G04 APERTURE END LIST*
D10*
%TO.P,J1,1,Pin_1*%
%TO.N,GND*%
X120025697Y-80019361D03*
D11*
%TO.P,J1,2,Pin_2*%
%TO.N,+5V*%
X122025697Y-80019361D03*
%TO.P,J1,3,Pin_3*%
%TO.N,/SIG*%
X124025697Y-80019361D03*
%TD*%
D12*
%TO.P,IC1,1,K*%
%TO.N,GND*%
X128846529Y-82542040D03*
%TO.P,IC1,2,A*%
%TO.N,Net-(IC1-A)*%
X128846529Y-80042040D03*
%TO.P,IC1,3,C*%
%TO.N,Net-(IC1-C)*%
X132846529Y-80042040D03*
%TO.P,IC1,4,E*%
%TO.N,GND*%
X132846529Y-82542040D03*
%TD*%
D13*
%TO.P,C2,1*%
%TO.N,+5V*%
X121880240Y-86019760D03*
%TO.P,C2,2*%
%TO.N,GND*%
X123100000Y-84800000D03*
%TD*%
D14*
%TO.P,R1,1*%
%TO.N,Net-(IC1-C)*%
X125835355Y-84764645D03*
%TO.P,R1,2*%
%TO.N,+5V*%
X124544885Y-86055115D03*
%TD*%
D15*
%TO.P,R3,1*%
%TO.N,+5V*%
X119244885Y-86055115D03*
%TO.P,R3,2*%
%TO.N,Net-(IC1-A)*%
X120535355Y-84764645D03*
%TD*%
D16*
%TO.N,GND*%
X131100000Y-78700000D03*
X127900000Y-84400000D03*
X117300000Y-82400000D03*
X114500000Y-86000000D03*
X126200000Y-78600000D03*
X117793163Y-86422005D03*
X111500000Y-82400000D03*
X114500000Y-79000000D03*
X133333228Y-86904456D03*
X127000000Y-87000000D03*
X126000000Y-82100000D03*
X133600000Y-84600000D03*
%TO.N,+5V*%
X131241132Y-86863437D03*
%TO.N,Net-(IC1-A)*%
X121900000Y-82300000D03*
X120100000Y-83500000D03*
%TD*%
D17*
%TO.N,Net-(IC1-C)*%
X128357756Y-81362040D02*
X125835355Y-83884441D01*
X132846529Y-80042040D02*
X131526529Y-81362040D01*
X131526529Y-81362040D02*
X128357756Y-81362040D01*
X125835355Y-83884441D02*
X125835355Y-84764645D01*
%TO.N,GND*%
X120025697Y-80019361D02*
X120025697Y-81725697D01*
X120025697Y-81725697D02*
X123100000Y-84800000D01*
%TO.N,+5V*%
X122025697Y-80025697D02*
X122025697Y-80019361D01*
X124509530Y-86019760D02*
X124544885Y-86055115D01*
X122025697Y-80019361D02*
X120720697Y-78714361D01*
X118900000Y-79208393D02*
X118900000Y-85710230D01*
X120720697Y-78714361D02*
X119394032Y-78714361D01*
X121880240Y-86019760D02*
X124509530Y-86019760D01*
X121844885Y-86055115D02*
X121880240Y-86019760D01*
X118900000Y-85710230D02*
X119244885Y-86055115D01*
X130432810Y-86055115D02*
X131241132Y-86863437D01*
X119394032Y-78714361D02*
X118900000Y-79208393D01*
X124544885Y-86055115D02*
X130432810Y-86055115D01*
X119244885Y-86055115D02*
X121844885Y-86055115D01*
%TO.N,Net-(IC1-A)*%
X126434087Y-80042040D02*
X124176127Y-82300000D01*
X128846529Y-80042040D02*
X126434087Y-80042040D01*
X120100000Y-83500000D02*
X120100000Y-84329290D01*
X124176127Y-82300000D02*
X121900000Y-82300000D01*
X120100000Y-84329290D02*
X120535355Y-84764645D01*
%TD*%
%TA.AperFunction,Conductor*%
%TO.N,GND*%
G36*
X132826329Y-77856010D02*
G01*
X132864720Y-77862111D01*
X132899335Y-77879800D01*
X134410869Y-78981477D01*
X134433635Y-78998070D01*
X134471128Y-79042070D01*
X134484599Y-79098285D01*
X134484106Y-87262078D01*
X134467100Y-87324748D01*
X134437472Y-87375325D01*
X134417745Y-87400741D01*
X134409316Y-87409091D01*
X134394552Y-87421593D01*
X134348690Y-87454648D01*
X134332164Y-87464699D01*
X134321593Y-87470047D01*
X134291246Y-87480723D01*
X134215040Y-87496822D01*
X134189410Y-87499500D01*
X132128483Y-87499500D01*
X132066483Y-87482887D01*
X132021096Y-87437500D01*
X132004483Y-87375500D01*
X132021096Y-87313500D01*
X132068311Y-87231721D01*
X132097902Y-87140649D01*
X132126806Y-87051693D01*
X132146592Y-86863437D01*
X132126806Y-86675181D01*
X132076944Y-86521723D01*
X132068311Y-86495152D01*
X131973665Y-86331220D01*
X131847002Y-86190547D01*
X131693862Y-86079285D01*
X131520935Y-86002292D01*
X131455801Y-85988448D01*
X131422414Y-85976131D01*
X131393901Y-85954839D01*
X131008538Y-85569475D01*
X130996756Y-85555842D01*
X130988655Y-85544961D01*
X130982420Y-85536585D01*
X130944477Y-85504746D01*
X130936501Y-85497438D01*
X130932592Y-85493529D01*
X130932587Y-85493524D01*
X130908233Y-85474267D01*
X130905457Y-85472005D01*
X130847061Y-85423005D01*
X130830631Y-85412537D01*
X130761501Y-85380301D01*
X130758257Y-85378730D01*
X130690116Y-85344509D01*
X130671713Y-85338112D01*
X130597021Y-85322689D01*
X130593502Y-85321909D01*
X130519300Y-85304323D01*
X130499931Y-85302344D01*
X130423679Y-85304563D01*
X130420073Y-85304615D01*
X126931325Y-85304615D01*
X126870893Y-85288893D01*
X126825787Y-85245712D01*
X126807443Y-85186024D01*
X126820513Y-85124966D01*
X126878284Y-85009935D01*
X126881780Y-84995186D01*
X126918070Y-84842068D01*
X126918070Y-84669544D01*
X126882474Y-84519358D01*
X126878284Y-84501678D01*
X126800858Y-84347508D01*
X126736688Y-84268735D01*
X126712237Y-84244284D01*
X126680144Y-84188698D01*
X126680144Y-84124510D01*
X126712235Y-84068927D01*
X127195998Y-83585164D01*
X128156955Y-83585164D01*
X128156956Y-83585165D01*
X128219139Y-83628706D01*
X128417369Y-83721142D01*
X128628642Y-83777752D01*
X128846529Y-83796815D01*
X129064415Y-83777752D01*
X129275688Y-83721142D01*
X129473914Y-83628707D01*
X129536101Y-83585164D01*
X132156955Y-83585164D01*
X132156956Y-83585165D01*
X132219139Y-83628706D01*
X132417369Y-83721142D01*
X132628642Y-83777752D01*
X132846529Y-83796815D01*
X133064415Y-83777752D01*
X133275688Y-83721142D01*
X133473914Y-83628707D01*
X133536101Y-83585164D01*
X132846530Y-82895593D01*
X132846529Y-82895593D01*
X132156955Y-83585164D01*
X129536101Y-83585164D01*
X128846530Y-82895593D01*
X128846529Y-82895593D01*
X128156955Y-83585164D01*
X127195998Y-83585164D01*
X127594367Y-83186795D01*
X127639632Y-83157958D01*
X127692850Y-83150952D01*
X127744043Y-83167093D01*
X127783618Y-83203356D01*
X127803403Y-83231611D01*
X127803403Y-83231612D01*
X128758847Y-82276168D01*
X128814434Y-82244074D01*
X128878622Y-82244074D01*
X128934209Y-82276168D01*
X129889653Y-83231612D01*
X129933196Y-83169425D01*
X130025631Y-82971199D01*
X130082241Y-82759926D01*
X130101304Y-82542040D01*
X130082241Y-82324151D01*
X130067366Y-82268633D01*
X130065524Y-82212348D01*
X130088765Y-82161053D01*
X130132297Y-82125328D01*
X130187141Y-82112540D01*
X131462823Y-82112540D01*
X131480793Y-82113849D01*
X131494431Y-82115846D01*
X131504552Y-82117329D01*
X131504552Y-82117328D01*
X131518891Y-82119429D01*
X131518500Y-82122095D01*
X131551950Y-82127241D01*
X131599491Y-82162095D01*
X131625566Y-82214964D01*
X131624281Y-82273899D01*
X131610816Y-82324151D01*
X131591753Y-82542039D01*
X131610816Y-82759926D01*
X131667427Y-82971201D01*
X131759860Y-83169426D01*
X131803402Y-83231611D01*
X131803403Y-83231612D01*
X132492975Y-82542040D01*
X133200082Y-82542040D01*
X133889653Y-83231612D01*
X133933196Y-83169425D01*
X134025631Y-82971199D01*
X134082241Y-82759926D01*
X134101304Y-82542040D01*
X134082241Y-82324153D01*
X134025631Y-82112880D01*
X133933196Y-81914655D01*
X133889652Y-81852468D01*
X133200082Y-82542040D01*
X132492975Y-82542040D01*
X133536101Y-81498914D01*
X133536100Y-81498913D01*
X133473915Y-81455371D01*
X133365245Y-81404698D01*
X133313069Y-81358941D01*
X133293649Y-81292316D01*
X133313068Y-81225691D01*
X133365244Y-81179934D01*
X133474168Y-81129142D01*
X133653406Y-81003638D01*
X133808127Y-80848917D01*
X133933631Y-80669679D01*
X134026104Y-80471370D01*
X134082736Y-80260017D01*
X134101806Y-80042040D01*
X134082736Y-79824063D01*
X134026104Y-79612710D01*
X133933631Y-79414402D01*
X133808127Y-79235163D01*
X133653406Y-79080442D01*
X133474168Y-78954938D01*
X133375381Y-78908873D01*
X133275860Y-78862465D01*
X133064503Y-78805832D01*
X132846528Y-78786762D01*
X132628554Y-78805832D01*
X132417197Y-78862465D01*
X132218890Y-78954938D01*
X132039651Y-79080442D01*
X131884931Y-79235162D01*
X131759427Y-79414401D01*
X131666954Y-79612708D01*
X131610321Y-79824065D01*
X131591251Y-80042040D01*
X131601811Y-80162748D01*
X131594805Y-80215965D01*
X131565964Y-80261235D01*
X131251977Y-80575223D01*
X131211752Y-80602101D01*
X131164299Y-80611540D01*
X130150145Y-80611540D01*
X130095301Y-80598752D01*
X130051769Y-80563026D01*
X130028528Y-80511731D01*
X130030369Y-80455449D01*
X130082736Y-80260017D01*
X130101806Y-80042040D01*
X130082736Y-79824063D01*
X130026104Y-79612710D01*
X129933631Y-79414402D01*
X129808127Y-79235163D01*
X129653406Y-79080442D01*
X129474168Y-78954938D01*
X129375381Y-78908873D01*
X129275860Y-78862465D01*
X129064503Y-78805832D01*
X128846528Y-78786762D01*
X128628554Y-78805832D01*
X128417197Y-78862465D01*
X128218890Y-78954938D01*
X128039650Y-79080443D01*
X127884933Y-79235159D01*
X127882482Y-79238661D01*
X127838163Y-79277529D01*
X127780905Y-79291540D01*
X126497793Y-79291540D01*
X126479823Y-79290231D01*
X126465940Y-79288197D01*
X126456064Y-79286751D01*
X126456063Y-79286751D01*
X126406718Y-79291068D01*
X126395911Y-79291540D01*
X126390378Y-79291540D01*
X126359588Y-79295138D01*
X126356004Y-79295504D01*
X126280048Y-79302149D01*
X126261008Y-79306370D01*
X126189319Y-79332461D01*
X126185918Y-79333643D01*
X126113561Y-79357620D01*
X126096014Y-79366115D01*
X126032308Y-79408015D01*
X126029268Y-79409952D01*
X125964367Y-79449984D01*
X125949251Y-79462297D01*
X125896918Y-79517766D01*
X125894406Y-79520352D01*
X125337878Y-80076882D01*
X125288515Y-80107132D01*
X125230799Y-80111674D01*
X125177312Y-80089519D01*
X125139712Y-80045496D01*
X125126197Y-79989201D01*
X125126197Y-79691941D01*
X125120990Y-79637408D01*
X125111225Y-79535143D01*
X125052013Y-79333486D01*
X124955708Y-79146679D01*
X124952540Y-79142651D01*
X124825790Y-78981476D01*
X124666951Y-78843840D01*
X124484942Y-78738757D01*
X124286330Y-78670016D01*
X124078300Y-78640107D01*
X124078299Y-78640107D01*
X123973332Y-78645107D01*
X123868366Y-78650107D01*
X123664116Y-78699658D01*
X123472944Y-78786963D01*
X123301747Y-78908873D01*
X123156708Y-79060986D01*
X123130154Y-79102304D01*
X123087839Y-79142651D01*
X123031739Y-79159123D01*
X122974329Y-79148057D01*
X122928370Y-79111915D01*
X122856870Y-79020997D01*
X122825789Y-78981475D01*
X122666953Y-78843842D01*
X122666951Y-78843840D01*
X122484942Y-78738757D01*
X122286330Y-78670016D01*
X122078300Y-78640107D01*
X122078299Y-78640107D01*
X122025815Y-78642607D01*
X121868364Y-78650107D01*
X121814877Y-78663083D01*
X121752127Y-78661962D01*
X121697963Y-78630259D01*
X121296425Y-78228721D01*
X121284643Y-78215088D01*
X121270306Y-78195830D01*
X121232363Y-78163992D01*
X121224388Y-78156684D01*
X121220479Y-78152775D01*
X121220474Y-78152770D01*
X121196120Y-78133513D01*
X121193344Y-78131251D01*
X121124810Y-78073744D01*
X121127275Y-78070805D01*
X121098408Y-78044797D01*
X121078889Y-77982193D01*
X121094029Y-77918389D01*
X121139592Y-77871228D01*
X121202834Y-77853900D01*
X132826329Y-77856010D01*
G37*
%TD.AperFunction*%
%TA.AperFunction,Conductor*%
G36*
X118922919Y-77853487D02*
G01*
X118984286Y-77869750D01*
X119029561Y-77914253D01*
X119046877Y-77975331D01*
X119031695Y-78036975D01*
X118987994Y-78083025D01*
X118924312Y-78122305D01*
X118909196Y-78134618D01*
X118856847Y-78190103D01*
X118854336Y-78192688D01*
X118414359Y-78632664D01*
X118400728Y-78644444D01*
X118381469Y-78658782D01*
X118349633Y-78696722D01*
X118342341Y-78704682D01*
X118338408Y-78708615D01*
X118319176Y-78732938D01*
X118316902Y-78735730D01*
X118267894Y-78794137D01*
X118257418Y-78810580D01*
X118225192Y-78879687D01*
X118223622Y-78882929D01*
X118189393Y-78951085D01*
X118182996Y-78969491D01*
X118167573Y-79044181D01*
X118166793Y-79047698D01*
X118149208Y-79121898D01*
X118147229Y-79141271D01*
X118149448Y-79217524D01*
X118149500Y-79221130D01*
X118149500Y-85646524D01*
X118148191Y-85664494D01*
X118144711Y-85688253D01*
X118149028Y-85737599D01*
X118149500Y-85748406D01*
X118149500Y-85753938D01*
X118153098Y-85784726D01*
X118153464Y-85788311D01*
X118160110Y-85864271D01*
X118164946Y-85886085D01*
X118165259Y-85888760D01*
X118171141Y-85917251D01*
X118168009Y-85953056D01*
X118162170Y-85977694D01*
X118162170Y-86150216D01*
X118201955Y-86318080D01*
X118201955Y-86318081D01*
X118201956Y-86318082D01*
X118279382Y-86472252D01*
X118343552Y-86551025D01*
X118343555Y-86551028D01*
X118343556Y-86551029D01*
X118748975Y-86956447D01*
X118827745Y-87020616D01*
X118827746Y-87020616D01*
X118827748Y-87020618D01*
X118981918Y-87098044D01*
X119037874Y-87111306D01*
X119149784Y-87137830D01*
X119149786Y-87137830D01*
X119322306Y-87137830D01*
X119322308Y-87137830D01*
X119406240Y-87117937D01*
X119490175Y-87098044D01*
X119644344Y-87020618D01*
X119723118Y-86956448D01*
X119797477Y-86882089D01*
X119837632Y-86841934D01*
X119877860Y-86815054D01*
X119925313Y-86805615D01*
X121146780Y-86805615D01*
X121194233Y-86815054D01*
X121234461Y-86841934D01*
X121348974Y-86956447D01*
X121427748Y-87020618D01*
X121581917Y-87098044D01*
X121637873Y-87111305D01*
X121749784Y-87137830D01*
X121749786Y-87137830D01*
X121922306Y-87137830D01*
X121922308Y-87137830D01*
X122018442Y-87115045D01*
X122090174Y-87098044D01*
X122244344Y-87020618D01*
X122323117Y-86956448D01*
X122472986Y-86806579D01*
X122513214Y-86779699D01*
X122560667Y-86770260D01*
X123811426Y-86770260D01*
X123858879Y-86779699D01*
X123899107Y-86806579D01*
X124048975Y-86956447D01*
X124127745Y-87020616D01*
X124127746Y-87020616D01*
X124127748Y-87020618D01*
X124281918Y-87098044D01*
X124337874Y-87111306D01*
X124449784Y-87137830D01*
X124449786Y-87137830D01*
X124622306Y-87137830D01*
X124622308Y-87137830D01*
X124706240Y-87117937D01*
X124790175Y-87098044D01*
X124944344Y-87020618D01*
X125023118Y-86956448D01*
X125097477Y-86882089D01*
X125137632Y-86841934D01*
X125177860Y-86815054D01*
X125225313Y-86805615D01*
X130070580Y-86805615D01*
X130118033Y-86815054D01*
X130158261Y-86841934D01*
X130328360Y-87012033D01*
X130358610Y-87061395D01*
X130413953Y-87231722D01*
X130461168Y-87313500D01*
X130477781Y-87375500D01*
X130461168Y-87437500D01*
X130415781Y-87482887D01*
X130353781Y-87499500D01*
X114909761Y-87499500D01*
X114890106Y-87497932D01*
X114889807Y-87497884D01*
X114885270Y-87497069D01*
X114813803Y-87482853D01*
X114781707Y-87471724D01*
X114768638Y-87465066D01*
X114756035Y-87457680D01*
X114751497Y-87454648D01*
X114715865Y-87430839D01*
X114697075Y-87415418D01*
X114684580Y-87402923D01*
X114669162Y-87384137D01*
X114642312Y-87343953D01*
X114634938Y-87331370D01*
X114628274Y-87318291D01*
X114617145Y-87286196D01*
X114602920Y-87214684D01*
X114602036Y-87209702D01*
X114601987Y-87209388D01*
X114600505Y-87190201D01*
X114600534Y-87140649D01*
X114600534Y-87140050D01*
X114600533Y-87140049D01*
X114600548Y-87115291D01*
X114600595Y-87115291D01*
X114600547Y-87115049D01*
X114600584Y-87100722D01*
X114570754Y-87027727D01*
X114515513Y-86971454D01*
X114443081Y-86940278D01*
X114403890Y-86939651D01*
X114403646Y-86939647D01*
X114354457Y-86938762D01*
X114345971Y-86940066D01*
X114042235Y-86924103D01*
X114042065Y-86924094D01*
X113989613Y-86921265D01*
X113978388Y-86920146D01*
X113718093Y-86882166D01*
X113717577Y-86882089D01*
X113567935Y-86859612D01*
X113557207Y-86857514D01*
X113321217Y-86800445D01*
X113320374Y-86800238D01*
X113153883Y-86758740D01*
X113143732Y-86755744D01*
X112922135Y-86679927D01*
X112920988Y-86679528D01*
X112751152Y-86619556D01*
X112741647Y-86615752D01*
X112532238Y-86521723D01*
X112530817Y-86521074D01*
X112363249Y-86443282D01*
X112354452Y-86438763D01*
X112157142Y-86327249D01*
X112155607Y-86326366D01*
X111993550Y-86231455D01*
X111985543Y-86226341D01*
X111801068Y-86098284D01*
X111799227Y-86096981D01*
X111645383Y-85985986D01*
X111638129Y-85980331D01*
X111467346Y-85836720D01*
X111465372Y-85835025D01*
X111354330Y-85737599D01*
X111321719Y-85708986D01*
X111315287Y-85702923D01*
X111277329Y-85664494D01*
X111159242Y-85544941D01*
X111157213Y-85542837D01*
X111121339Y-85504746D01*
X111025453Y-85402934D01*
X111019842Y-85396551D01*
X110879522Y-85225439D01*
X110877524Y-85222935D01*
X110759164Y-85070510D01*
X110754391Y-85063927D01*
X110630806Y-84881120D01*
X110628810Y-84878071D01*
X110577428Y-84797032D01*
X110525176Y-84714621D01*
X110521222Y-84707926D01*
X110415282Y-84514961D01*
X110413425Y-84511447D01*
X110408465Y-84501679D01*
X110325553Y-84338411D01*
X110322395Y-84331700D01*
X110234827Y-84130058D01*
X110233212Y-84126152D01*
X110162053Y-83945217D01*
X110159651Y-83938554D01*
X110091166Y-83730023D01*
X110089789Y-83725546D01*
X110088263Y-83720229D01*
X110036089Y-83538464D01*
X110034411Y-83531955D01*
X109985483Y-83318115D01*
X109984485Y-83313308D01*
X109948762Y-83121722D01*
X109947763Y-83115468D01*
X109918780Y-82898101D01*
X109918206Y-82892950D01*
X109900838Y-82698668D01*
X109900453Y-82692713D01*
X109891651Y-82473725D01*
X109891554Y-82468095D01*
X109891974Y-82398332D01*
X112886732Y-82398332D01*
X112906594Y-82650704D01*
X112965690Y-82896859D01*
X113012385Y-83009588D01*
X113062568Y-83130740D01*
X113063166Y-83131716D01*
X113194840Y-83346589D01*
X113359246Y-83539085D01*
X113551742Y-83703491D01*
X113551744Y-83703492D01*
X113551745Y-83703493D01*
X113767592Y-83835764D01*
X113915858Y-83897178D01*
X114001472Y-83932641D01*
X114079239Y-83951311D01*
X114247629Y-83991738D01*
X114500000Y-84011600D01*
X114752371Y-83991738D01*
X114998527Y-83932641D01*
X115232408Y-83835764D01*
X115448255Y-83703493D01*
X115640753Y-83539085D01*
X115805161Y-83346587D01*
X115937432Y-83130740D01*
X116034309Y-82896859D01*
X116093406Y-82650703D01*
X116113268Y-82398332D01*
X116093406Y-82145961D01*
X116034309Y-81899805D01*
X115937432Y-81665924D01*
X115805161Y-81450077D01*
X115805160Y-81450076D01*
X115805159Y-81450074D01*
X115640753Y-81257578D01*
X115448257Y-81093172D01*
X115357648Y-81037647D01*
X115232408Y-80960900D01*
X115146013Y-80925114D01*
X114998527Y-80864022D01*
X114752372Y-80804926D01*
X114500000Y-80785064D01*
X114247627Y-80804926D01*
X114001472Y-80864022D01*
X113767590Y-80960901D01*
X113551742Y-81093172D01*
X113359246Y-81257578D01*
X113194840Y-81450074D01*
X113062569Y-81665922D01*
X112965690Y-81899804D01*
X112906594Y-82145959D01*
X112886732Y-82398332D01*
X109891974Y-82398332D01*
X109892729Y-82273059D01*
X109892893Y-82267412D01*
X109904332Y-82048535D01*
X109904786Y-82042625D01*
X109924488Y-81848600D01*
X109925136Y-81843360D01*
X109956726Y-81626409D01*
X109957799Y-81620177D01*
X109995843Y-81428949D01*
X109996882Y-81424236D01*
X110048385Y-81210985D01*
X110050125Y-81204551D01*
X110106107Y-81018017D01*
X110107507Y-81013656D01*
X110178529Y-80805875D01*
X110180986Y-80799310D01*
X110254318Y-80619245D01*
X110255967Y-80615390D01*
X110345984Y-80414755D01*
X110349227Y-80408073D01*
X110439187Y-80236089D01*
X110441015Y-80232726D01*
X110549326Y-80040952D01*
X110553354Y-80034319D01*
X110659003Y-79872042D01*
X110660943Y-79869156D01*
X110786768Y-79687781D01*
X110791588Y-79681300D01*
X110911854Y-79530210D01*
X110913772Y-79527865D01*
X111056216Y-79358368D01*
X111061863Y-79352097D01*
X111195399Y-79213687D01*
X111197289Y-79211774D01*
X111355334Y-79055574D01*
X111361796Y-79049629D01*
X111507159Y-78925155D01*
X111508810Y-78923771D01*
X111681492Y-78782077D01*
X111688759Y-78776553D01*
X111844013Y-78667357D01*
X111845681Y-78666207D01*
X112031830Y-78540281D01*
X112039894Y-78535268D01*
X112203115Y-78442296D01*
X112204467Y-78441539D01*
X112403276Y-78332314D01*
X112412094Y-78327919D01*
X112580760Y-78252072D01*
X112581803Y-78251610D01*
X112792572Y-78160004D01*
X112802083Y-78156329D01*
X112972951Y-78098296D01*
X112973376Y-78098154D01*
X113196343Y-78024855D01*
X113206461Y-78022001D01*
X113373748Y-77982438D01*
X113610979Y-77928083D01*
X113621676Y-77926124D01*
X113772152Y-77905371D01*
X114032893Y-77870527D01*
X114044082Y-77869547D01*
X114095380Y-77867398D01*
X114095748Y-77867383D01*
X114095749Y-77867421D01*
X114095906Y-77867377D01*
X114456088Y-77852793D01*
X114461811Y-77852695D01*
X114508922Y-77852978D01*
X114510396Y-77852686D01*
X118922919Y-77853487D01*
G37*
%TD.AperFunction*%
%TA.AperFunction,Conductor*%
G36*
X120213697Y-79785974D02*
G01*
X120259084Y-79831361D01*
X120275697Y-79893361D01*
X120275697Y-81394360D01*
X120425676Y-81394360D01*
X120528392Y-81383867D01*
X120694819Y-81328718D01*
X120844042Y-81236677D01*
X120968013Y-81112706D01*
X121007182Y-81049203D01*
X121049235Y-81007784D01*
X121105674Y-80990499D01*
X121163709Y-81001267D01*
X121210191Y-81037647D01*
X121225605Y-81057247D01*
X121272640Y-81098003D01*
X121384442Y-81194881D01*
X121514918Y-81270211D01*
X121561891Y-81318430D01*
X121576748Y-81384087D01*
X121555110Y-81447832D01*
X121503355Y-81490877D01*
X121447268Y-81515849D01*
X121294129Y-81627110D01*
X121167466Y-81767783D01*
X121072820Y-81931715D01*
X121014326Y-82111742D01*
X120997283Y-82273899D01*
X120994540Y-82300000D01*
X121004433Y-82394128D01*
X121014326Y-82488257D01*
X121072820Y-82668284D01*
X121167466Y-82832216D01*
X121294129Y-82972889D01*
X121447269Y-83084151D01*
X121620197Y-83161144D01*
X121805352Y-83200500D01*
X121805354Y-83200500D01*
X121994646Y-83200500D01*
X121994648Y-83200500D01*
X122140839Y-83169426D01*
X122179803Y-83161144D01*
X122352730Y-83084151D01*
X122366449Y-83074183D01*
X122401018Y-83056569D01*
X122439337Y-83050500D01*
X124112421Y-83050500D01*
X124130391Y-83051809D01*
X124134447Y-83052402D01*
X124154150Y-83055289D01*
X124203495Y-83050972D01*
X124214303Y-83050500D01*
X124219833Y-83050500D01*
X124219836Y-83050500D01*
X124250677Y-83046894D01*
X124254158Y-83046539D01*
X124328924Y-83039999D01*
X124328924Y-83039998D01*
X124330179Y-83039889D01*
X124349189Y-83035674D01*
X124350377Y-83035241D01*
X124350382Y-83035241D01*
X124420947Y-83009557D01*
X124424222Y-83008419D01*
X124495461Y-82984814D01*
X124495463Y-82984812D01*
X124496663Y-82984415D01*
X124514190Y-82975929D01*
X124515239Y-82975238D01*
X124515244Y-82975237D01*
X124577933Y-82934005D01*
X124580925Y-82932099D01*
X124644783Y-82892712D01*
X124644783Y-82892711D01*
X124645856Y-82892050D01*
X124660951Y-82879753D01*
X124661819Y-82878832D01*
X124661823Y-82878830D01*
X124713312Y-82824253D01*
X124715758Y-82821735D01*
X126708634Y-80828859D01*
X126748863Y-80801979D01*
X126796316Y-80792540D01*
X127566526Y-80792540D01*
X127622821Y-80806055D01*
X127666844Y-80843655D01*
X127688999Y-80897142D01*
X127684457Y-80954858D01*
X127654207Y-81004221D01*
X125349713Y-83308713D01*
X125336082Y-83320494D01*
X125316822Y-83334833D01*
X125284988Y-83372770D01*
X125277696Y-83380730D01*
X125273763Y-83384663D01*
X125254531Y-83408986D01*
X125252257Y-83411778D01*
X125203249Y-83470185D01*
X125192773Y-83486628D01*
X125160547Y-83555735D01*
X125158977Y-83558977D01*
X125124748Y-83627133D01*
X125118351Y-83645539D01*
X125102928Y-83720229D01*
X125102148Y-83723746D01*
X125084563Y-83797946D01*
X125082584Y-83817319D01*
X125084803Y-83893572D01*
X125084855Y-83897178D01*
X125084855Y-84084217D01*
X125075416Y-84131669D01*
X125048536Y-84171898D01*
X124934024Y-84286412D01*
X124884028Y-84347785D01*
X124869853Y-84365185D01*
X124792424Y-84519358D01*
X124752640Y-84687222D01*
X124752640Y-84848400D01*
X124736027Y-84910400D01*
X124690640Y-84955787D01*
X124628640Y-84972400D01*
X124467464Y-84972400D01*
X124435287Y-84980025D01*
X124365570Y-84996549D01*
X124303141Y-84995186D01*
X124249292Y-84963572D01*
X124217678Y-84909722D01*
X124216317Y-84847293D01*
X124217570Y-84842006D01*
X124217570Y-84669607D01*
X124177811Y-84501847D01*
X124100437Y-84347785D01*
X124036307Y-84269061D01*
X124010399Y-84243153D01*
X124010398Y-84243153D01*
X123187680Y-85065871D01*
X123132093Y-85097965D01*
X123067905Y-85097965D01*
X123012318Y-85065871D01*
X122233794Y-84287347D01*
X122233793Y-84287347D01*
X122163693Y-84357448D01*
X122099562Y-84436173D01*
X122022188Y-84590235D01*
X121982430Y-84757995D01*
X121982430Y-84777690D01*
X121965817Y-84839690D01*
X121920430Y-84885077D01*
X121858430Y-84901690D01*
X121838174Y-84901690D01*
X121770666Y-84917690D01*
X121715232Y-84918093D01*
X121665161Y-84894300D01*
X121630462Y-84851066D01*
X121618070Y-84797032D01*
X121618070Y-84669544D01*
X121582474Y-84519358D01*
X121578284Y-84501678D01*
X121500858Y-84347508D01*
X121436688Y-84268735D01*
X121339851Y-84171898D01*
X121101746Y-83933794D01*
X122587347Y-83933794D01*
X123100000Y-84446447D01*
X123100001Y-84446447D01*
X123656846Y-83889601D01*
X123630931Y-83863687D01*
X123552215Y-83799562D01*
X123398153Y-83722188D01*
X123230393Y-83682430D01*
X123057995Y-83682430D01*
X122890235Y-83722188D01*
X122736170Y-83799564D01*
X122657458Y-83863683D01*
X122587347Y-83933794D01*
X121101746Y-83933794D01*
X121031267Y-83863315D01*
X121016105Y-83850963D01*
X120984824Y-83812826D01*
X120970885Y-83765512D01*
X120976493Y-83716509D01*
X120985674Y-83688256D01*
X121005460Y-83500000D01*
X120985674Y-83311744D01*
X120939432Y-83169426D01*
X120927179Y-83131715D01*
X120832533Y-82967783D01*
X120705870Y-82827110D01*
X120552730Y-82715848D01*
X120379802Y-82638855D01*
X120194648Y-82599500D01*
X120194646Y-82599500D01*
X120005354Y-82599500D01*
X120005352Y-82599500D01*
X119807449Y-82641565D01*
X119807076Y-82639814D01*
X119764767Y-82647083D01*
X119706962Y-82627460D01*
X119665526Y-82582632D01*
X119650500Y-82523466D01*
X119650500Y-81518361D01*
X119667113Y-81456361D01*
X119712500Y-81410974D01*
X119774500Y-81394361D01*
X119775697Y-81394361D01*
X119775697Y-79893361D01*
X119792310Y-79831361D01*
X119837697Y-79785974D01*
X119899697Y-79769361D01*
X120151697Y-79769361D01*
X120213697Y-79785974D01*
G37*
%TD.AperFunction*%
%TD*%
M02*
