%TF.GenerationSoftware,KiCad,Pcbnew,7.0.1*%
%TF.CreationDate,2025-03-05T17:14:23+01:00*%
%TF.ProjectId,hextrudort_fila_sens,68657874-7275-4646-9f72-745f66696c61,rev?*%
%TF.SameCoordinates,Original*%
%TF.FileFunction,Legend,Bot*%
%TF.FilePolarity,Positive*%
%FSLAX46Y46*%
G04 Gerber Fmt 4.6, Leading zero omitted, Abs format (unit mm)*
G04 Created by KiCad (PCBNEW 7.0.1) date 2025-03-05 17:14:23*
%MOMM*%
%LPD*%
G01*
G04 APERTURE LIST*
%ADD10C,0.150000*%
%ADD11C,0.125000*%
%ADD12C,0.254000*%
%ADD13C,0.100000*%
%ADD14C,0.200000*%
%ADD15C,0.120000*%
G04 APERTURE END LIST*
D10*
X117221428Y-80408214D02*
X117221428Y-79658214D01*
X117221428Y-79658214D02*
X117042857Y-79658214D01*
X117042857Y-79658214D02*
X116935714Y-79693928D01*
X116935714Y-79693928D02*
X116864285Y-79765357D01*
X116864285Y-79765357D02*
X116828571Y-79836785D01*
X116828571Y-79836785D02*
X116792857Y-79979642D01*
X116792857Y-79979642D02*
X116792857Y-80086785D01*
X116792857Y-80086785D02*
X116828571Y-80229642D01*
X116828571Y-80229642D02*
X116864285Y-80301071D01*
X116864285Y-80301071D02*
X116935714Y-80372500D01*
X116935714Y-80372500D02*
X117042857Y-80408214D01*
X117042857Y-80408214D02*
X117221428Y-80408214D01*
X116364285Y-80408214D02*
X116435714Y-80372500D01*
X116435714Y-80372500D02*
X116471428Y-80336785D01*
X116471428Y-80336785D02*
X116507142Y-80265357D01*
X116507142Y-80265357D02*
X116507142Y-80051071D01*
X116507142Y-80051071D02*
X116471428Y-79979642D01*
X116471428Y-79979642D02*
X116435714Y-79943928D01*
X116435714Y-79943928D02*
X116364285Y-79908214D01*
X116364285Y-79908214D02*
X116257142Y-79908214D01*
X116257142Y-79908214D02*
X116185714Y-79943928D01*
X116185714Y-79943928D02*
X116150000Y-79979642D01*
X116150000Y-79979642D02*
X116114285Y-80051071D01*
X116114285Y-80051071D02*
X116114285Y-80265357D01*
X116114285Y-80265357D02*
X116150000Y-80336785D01*
X116150000Y-80336785D02*
X116185714Y-80372500D01*
X116185714Y-80372500D02*
X116257142Y-80408214D01*
X116257142Y-80408214D02*
X116364285Y-80408214D01*
X115221428Y-79908214D02*
X115221428Y-80408214D01*
X115221428Y-79979642D02*
X115185714Y-79943928D01*
X115185714Y-79943928D02*
X115114285Y-79908214D01*
X115114285Y-79908214D02*
X115007142Y-79908214D01*
X115007142Y-79908214D02*
X114935714Y-79943928D01*
X114935714Y-79943928D02*
X114900000Y-80015357D01*
X114900000Y-80015357D02*
X114900000Y-80408214D01*
X114435714Y-80408214D02*
X114507143Y-80372500D01*
X114507143Y-80372500D02*
X114542857Y-80336785D01*
X114542857Y-80336785D02*
X114578571Y-80265357D01*
X114578571Y-80265357D02*
X114578571Y-80051071D01*
X114578571Y-80051071D02*
X114542857Y-79979642D01*
X114542857Y-79979642D02*
X114507143Y-79943928D01*
X114507143Y-79943928D02*
X114435714Y-79908214D01*
X114435714Y-79908214D02*
X114328571Y-79908214D01*
X114328571Y-79908214D02*
X114257143Y-79943928D01*
X114257143Y-79943928D02*
X114221429Y-79979642D01*
X114221429Y-79979642D02*
X114185714Y-80051071D01*
X114185714Y-80051071D02*
X114185714Y-80265357D01*
X114185714Y-80265357D02*
X114221429Y-80336785D01*
X114221429Y-80336785D02*
X114257143Y-80372500D01*
X114257143Y-80372500D02*
X114328571Y-80408214D01*
X114328571Y-80408214D02*
X114435714Y-80408214D01*
X113971429Y-79908214D02*
X113685715Y-79908214D01*
X113864286Y-79658214D02*
X113864286Y-80301071D01*
X113864286Y-80301071D02*
X113828572Y-80372500D01*
X113828572Y-80372500D02*
X113757143Y-80408214D01*
X113757143Y-80408214D02*
X113685715Y-80408214D01*
X112578572Y-80372500D02*
X112650000Y-80408214D01*
X112650000Y-80408214D02*
X112792858Y-80408214D01*
X112792858Y-80408214D02*
X112864286Y-80372500D01*
X112864286Y-80372500D02*
X112900000Y-80301071D01*
X112900000Y-80301071D02*
X112900000Y-80015357D01*
X112900000Y-80015357D02*
X112864286Y-79943928D01*
X112864286Y-79943928D02*
X112792858Y-79908214D01*
X112792858Y-79908214D02*
X112650000Y-79908214D01*
X112650000Y-79908214D02*
X112578572Y-79943928D01*
X112578572Y-79943928D02*
X112542858Y-80015357D01*
X112542858Y-80015357D02*
X112542858Y-80086785D01*
X112542858Y-80086785D02*
X112900000Y-80158214D01*
X111900001Y-80408214D02*
X111900001Y-80015357D01*
X111900001Y-80015357D02*
X111935715Y-79943928D01*
X111935715Y-79943928D02*
X112007143Y-79908214D01*
X112007143Y-79908214D02*
X112150001Y-79908214D01*
X112150001Y-79908214D02*
X112221429Y-79943928D01*
X111900001Y-80372500D02*
X111971429Y-80408214D01*
X111971429Y-80408214D02*
X112150001Y-80408214D01*
X112150001Y-80408214D02*
X112221429Y-80372500D01*
X112221429Y-80372500D02*
X112257143Y-80301071D01*
X112257143Y-80301071D02*
X112257143Y-80229642D01*
X112257143Y-80229642D02*
X112221429Y-80158214D01*
X112221429Y-80158214D02*
X112150001Y-80122500D01*
X112150001Y-80122500D02*
X111971429Y-80122500D01*
X111971429Y-80122500D02*
X111900001Y-80086785D01*
X111650001Y-79908214D02*
X111364287Y-79908214D01*
X111542858Y-79658214D02*
X111542858Y-80301071D01*
X111542858Y-80301071D02*
X111507144Y-80372500D01*
X111507144Y-80372500D02*
X111435715Y-80408214D01*
X111435715Y-80408214D02*
X111364287Y-80408214D01*
D11*
X133921428Y-85493214D02*
X133921428Y-84743214D01*
X133921428Y-84743214D02*
X133742857Y-84743214D01*
X133742857Y-84743214D02*
X133635714Y-84778928D01*
X133635714Y-84778928D02*
X133564285Y-84850357D01*
X133564285Y-84850357D02*
X133528571Y-84921785D01*
X133528571Y-84921785D02*
X133492857Y-85064642D01*
X133492857Y-85064642D02*
X133492857Y-85171785D01*
X133492857Y-85171785D02*
X133528571Y-85314642D01*
X133528571Y-85314642D02*
X133564285Y-85386071D01*
X133564285Y-85386071D02*
X133635714Y-85457500D01*
X133635714Y-85457500D02*
X133742857Y-85493214D01*
X133742857Y-85493214D02*
X133921428Y-85493214D01*
X132885714Y-85457500D02*
X132957142Y-85493214D01*
X132957142Y-85493214D02*
X133100000Y-85493214D01*
X133100000Y-85493214D02*
X133171428Y-85457500D01*
X133171428Y-85457500D02*
X133207142Y-85386071D01*
X133207142Y-85386071D02*
X133207142Y-85100357D01*
X133207142Y-85100357D02*
X133171428Y-85028928D01*
X133171428Y-85028928D02*
X133100000Y-84993214D01*
X133100000Y-84993214D02*
X132957142Y-84993214D01*
X132957142Y-84993214D02*
X132885714Y-85028928D01*
X132885714Y-85028928D02*
X132850000Y-85100357D01*
X132850000Y-85100357D02*
X132850000Y-85171785D01*
X132850000Y-85171785D02*
X133207142Y-85243214D01*
X132564285Y-85457500D02*
X132492857Y-85493214D01*
X132492857Y-85493214D02*
X132350000Y-85493214D01*
X132350000Y-85493214D02*
X132278571Y-85457500D01*
X132278571Y-85457500D02*
X132242857Y-85386071D01*
X132242857Y-85386071D02*
X132242857Y-85350357D01*
X132242857Y-85350357D02*
X132278571Y-85278928D01*
X132278571Y-85278928D02*
X132350000Y-85243214D01*
X132350000Y-85243214D02*
X132457143Y-85243214D01*
X132457143Y-85243214D02*
X132528571Y-85207500D01*
X132528571Y-85207500D02*
X132564285Y-85136071D01*
X132564285Y-85136071D02*
X132564285Y-85100357D01*
X132564285Y-85100357D02*
X132528571Y-85028928D01*
X132528571Y-85028928D02*
X132457143Y-84993214D01*
X132457143Y-84993214D02*
X132350000Y-84993214D01*
X132350000Y-84993214D02*
X132278571Y-85028928D01*
X131921428Y-85493214D02*
X131921428Y-84993214D01*
X131921428Y-84743214D02*
X131957142Y-84778928D01*
X131957142Y-84778928D02*
X131921428Y-84814642D01*
X131921428Y-84814642D02*
X131885714Y-84778928D01*
X131885714Y-84778928D02*
X131921428Y-84743214D01*
X131921428Y-84743214D02*
X131921428Y-84814642D01*
X131242857Y-84993214D02*
X131242857Y-85600357D01*
X131242857Y-85600357D02*
X131278571Y-85671785D01*
X131278571Y-85671785D02*
X131314285Y-85707500D01*
X131314285Y-85707500D02*
X131385714Y-85743214D01*
X131385714Y-85743214D02*
X131492857Y-85743214D01*
X131492857Y-85743214D02*
X131564285Y-85707500D01*
X131242857Y-85457500D02*
X131314285Y-85493214D01*
X131314285Y-85493214D02*
X131457142Y-85493214D01*
X131457142Y-85493214D02*
X131528571Y-85457500D01*
X131528571Y-85457500D02*
X131564285Y-85421785D01*
X131564285Y-85421785D02*
X131599999Y-85350357D01*
X131599999Y-85350357D02*
X131599999Y-85136071D01*
X131599999Y-85136071D02*
X131564285Y-85064642D01*
X131564285Y-85064642D02*
X131528571Y-85028928D01*
X131528571Y-85028928D02*
X131457142Y-84993214D01*
X131457142Y-84993214D02*
X131314285Y-84993214D01*
X131314285Y-84993214D02*
X131242857Y-85028928D01*
X130885714Y-84993214D02*
X130885714Y-85493214D01*
X130885714Y-85064642D02*
X130850000Y-85028928D01*
X130850000Y-85028928D02*
X130778571Y-84993214D01*
X130778571Y-84993214D02*
X130671428Y-84993214D01*
X130671428Y-84993214D02*
X130600000Y-85028928D01*
X130600000Y-85028928D02*
X130564286Y-85100357D01*
X130564286Y-85100357D02*
X130564286Y-85493214D01*
X129921429Y-85457500D02*
X129992857Y-85493214D01*
X129992857Y-85493214D02*
X130135715Y-85493214D01*
X130135715Y-85493214D02*
X130207143Y-85457500D01*
X130207143Y-85457500D02*
X130242857Y-85386071D01*
X130242857Y-85386071D02*
X130242857Y-85100357D01*
X130242857Y-85100357D02*
X130207143Y-85028928D01*
X130207143Y-85028928D02*
X130135715Y-84993214D01*
X130135715Y-84993214D02*
X129992857Y-84993214D01*
X129992857Y-84993214D02*
X129921429Y-85028928D01*
X129921429Y-85028928D02*
X129885715Y-85100357D01*
X129885715Y-85100357D02*
X129885715Y-85171785D01*
X129885715Y-85171785D02*
X130242857Y-85243214D01*
X129242858Y-85493214D02*
X129242858Y-84743214D01*
X129242858Y-85457500D02*
X129314286Y-85493214D01*
X129314286Y-85493214D02*
X129457143Y-85493214D01*
X129457143Y-85493214D02*
X129528572Y-85457500D01*
X129528572Y-85457500D02*
X129564286Y-85421785D01*
X129564286Y-85421785D02*
X129600000Y-85350357D01*
X129600000Y-85350357D02*
X129600000Y-85136071D01*
X129600000Y-85136071D02*
X129564286Y-85064642D01*
X129564286Y-85064642D02*
X129528572Y-85028928D01*
X129528572Y-85028928D02*
X129457143Y-84993214D01*
X129457143Y-84993214D02*
X129314286Y-84993214D01*
X129314286Y-84993214D02*
X129242858Y-85028928D01*
X128314286Y-85493214D02*
X128314286Y-84743214D01*
X128314286Y-85028928D02*
X128242858Y-84993214D01*
X128242858Y-84993214D02*
X128100000Y-84993214D01*
X128100000Y-84993214D02*
X128028572Y-85028928D01*
X128028572Y-85028928D02*
X127992858Y-85064642D01*
X127992858Y-85064642D02*
X127957143Y-85136071D01*
X127957143Y-85136071D02*
X127957143Y-85350357D01*
X127957143Y-85350357D02*
X127992858Y-85421785D01*
X127992858Y-85421785D02*
X128028572Y-85457500D01*
X128028572Y-85457500D02*
X128100000Y-85493214D01*
X128100000Y-85493214D02*
X128242858Y-85493214D01*
X128242858Y-85493214D02*
X128314286Y-85457500D01*
X127707144Y-84993214D02*
X127528572Y-85493214D01*
X127350001Y-84993214D02*
X127528572Y-85493214D01*
X127528572Y-85493214D02*
X127600001Y-85671785D01*
X127600001Y-85671785D02*
X127635715Y-85707500D01*
X127635715Y-85707500D02*
X127707144Y-85743214D01*
X133564285Y-86708214D02*
X133921428Y-86708214D01*
X133921428Y-86708214D02*
X133921428Y-85958214D01*
X133207142Y-86708214D02*
X133278571Y-86672500D01*
X133278571Y-86672500D02*
X133314285Y-86636785D01*
X133314285Y-86636785D02*
X133349999Y-86565357D01*
X133349999Y-86565357D02*
X133349999Y-86351071D01*
X133349999Y-86351071D02*
X133314285Y-86279642D01*
X133314285Y-86279642D02*
X133278571Y-86243928D01*
X133278571Y-86243928D02*
X133207142Y-86208214D01*
X133207142Y-86208214D02*
X133099999Y-86208214D01*
X133099999Y-86208214D02*
X133028571Y-86243928D01*
X133028571Y-86243928D02*
X132992857Y-86279642D01*
X132992857Y-86279642D02*
X132957142Y-86351071D01*
X132957142Y-86351071D02*
X132957142Y-86565357D01*
X132957142Y-86565357D02*
X132992857Y-86636785D01*
X132992857Y-86636785D02*
X133028571Y-86672500D01*
X133028571Y-86672500D02*
X133099999Y-86708214D01*
X133099999Y-86708214D02*
X133207142Y-86708214D01*
X132635714Y-86708214D02*
X132635714Y-85958214D01*
X132635714Y-86243928D02*
X132564286Y-86208214D01*
X132564286Y-86208214D02*
X132421428Y-86208214D01*
X132421428Y-86208214D02*
X132350000Y-86243928D01*
X132350000Y-86243928D02*
X132314286Y-86279642D01*
X132314286Y-86279642D02*
X132278571Y-86351071D01*
X132278571Y-86351071D02*
X132278571Y-86565357D01*
X132278571Y-86565357D02*
X132314286Y-86636785D01*
X132314286Y-86636785D02*
X132350000Y-86672500D01*
X132350000Y-86672500D02*
X132421428Y-86708214D01*
X132421428Y-86708214D02*
X132564286Y-86708214D01*
X132564286Y-86708214D02*
X132635714Y-86672500D01*
X131850000Y-86708214D02*
X131921429Y-86672500D01*
X131921429Y-86672500D02*
X131957143Y-86636785D01*
X131957143Y-86636785D02*
X131992857Y-86565357D01*
X131992857Y-86565357D02*
X131992857Y-86351071D01*
X131992857Y-86351071D02*
X131957143Y-86279642D01*
X131957143Y-86279642D02*
X131921429Y-86243928D01*
X131921429Y-86243928D02*
X131850000Y-86208214D01*
X131850000Y-86208214D02*
X131742857Y-86208214D01*
X131742857Y-86208214D02*
X131671429Y-86243928D01*
X131671429Y-86243928D02*
X131635715Y-86279642D01*
X131635715Y-86279642D02*
X131600000Y-86351071D01*
X131600000Y-86351071D02*
X131600000Y-86565357D01*
X131600000Y-86565357D02*
X131635715Y-86636785D01*
X131635715Y-86636785D02*
X131671429Y-86672500D01*
X131671429Y-86672500D02*
X131742857Y-86708214D01*
X131742857Y-86708214D02*
X131850000Y-86708214D01*
X130957144Y-86708214D02*
X130957144Y-85958214D01*
X130957144Y-86672500D02*
X131028572Y-86708214D01*
X131028572Y-86708214D02*
X131171429Y-86708214D01*
X131171429Y-86708214D02*
X131242858Y-86672500D01*
X131242858Y-86672500D02*
X131278572Y-86636785D01*
X131278572Y-86636785D02*
X131314286Y-86565357D01*
X131314286Y-86565357D02*
X131314286Y-86351071D01*
X131314286Y-86351071D02*
X131278572Y-86279642D01*
X131278572Y-86279642D02*
X131242858Y-86243928D01*
X131242858Y-86243928D02*
X131171429Y-86208214D01*
X131171429Y-86208214D02*
X131028572Y-86208214D01*
X131028572Y-86208214D02*
X130957144Y-86243928D01*
X129564286Y-86351071D02*
X129600001Y-86315357D01*
X129600001Y-86315357D02*
X129671429Y-86279642D01*
X129671429Y-86279642D02*
X129742858Y-86279642D01*
X129742858Y-86279642D02*
X129814286Y-86315357D01*
X129814286Y-86315357D02*
X129850001Y-86351071D01*
X129850001Y-86351071D02*
X129885715Y-86422500D01*
X129885715Y-86422500D02*
X129885715Y-86493928D01*
X129885715Y-86493928D02*
X129850001Y-86565357D01*
X129850001Y-86565357D02*
X129814286Y-86601071D01*
X129814286Y-86601071D02*
X129742858Y-86636785D01*
X129742858Y-86636785D02*
X129671429Y-86636785D01*
X129671429Y-86636785D02*
X129600001Y-86601071D01*
X129600001Y-86601071D02*
X129564286Y-86565357D01*
X129564286Y-86279642D02*
X129564286Y-86565357D01*
X129564286Y-86565357D02*
X129528572Y-86601071D01*
X129528572Y-86601071D02*
X129492858Y-86601071D01*
X129492858Y-86601071D02*
X129421429Y-86565357D01*
X129421429Y-86565357D02*
X129385715Y-86493928D01*
X129385715Y-86493928D02*
X129385715Y-86315357D01*
X129385715Y-86315357D02*
X129457144Y-86208214D01*
X129457144Y-86208214D02*
X129564286Y-86136785D01*
X129564286Y-86136785D02*
X129707144Y-86101071D01*
X129707144Y-86101071D02*
X129850001Y-86136785D01*
X129850001Y-86136785D02*
X129957144Y-86208214D01*
X129957144Y-86208214D02*
X130028572Y-86315357D01*
X130028572Y-86315357D02*
X130064286Y-86458214D01*
X130064286Y-86458214D02*
X130028572Y-86601071D01*
X130028572Y-86601071D02*
X129957144Y-86708214D01*
X129957144Y-86708214D02*
X129850001Y-86779642D01*
X129850001Y-86779642D02*
X129707144Y-86815357D01*
X129707144Y-86815357D02*
X129564286Y-86779642D01*
X129564286Y-86779642D02*
X129457144Y-86708214D01*
X128528571Y-86029642D02*
X128492857Y-85993928D01*
X128492857Y-85993928D02*
X128421429Y-85958214D01*
X128421429Y-85958214D02*
X128242857Y-85958214D01*
X128242857Y-85958214D02*
X128171429Y-85993928D01*
X128171429Y-85993928D02*
X128135714Y-86029642D01*
X128135714Y-86029642D02*
X128100000Y-86101071D01*
X128100000Y-86101071D02*
X128100000Y-86172500D01*
X128100000Y-86172500D02*
X128135714Y-86279642D01*
X128135714Y-86279642D02*
X128564286Y-86708214D01*
X128564286Y-86708214D02*
X128100000Y-86708214D01*
X127635714Y-85958214D02*
X127564285Y-85958214D01*
X127564285Y-85958214D02*
X127492857Y-85993928D01*
X127492857Y-85993928D02*
X127457143Y-86029642D01*
X127457143Y-86029642D02*
X127421428Y-86101071D01*
X127421428Y-86101071D02*
X127385714Y-86243928D01*
X127385714Y-86243928D02*
X127385714Y-86422500D01*
X127385714Y-86422500D02*
X127421428Y-86565357D01*
X127421428Y-86565357D02*
X127457143Y-86636785D01*
X127457143Y-86636785D02*
X127492857Y-86672500D01*
X127492857Y-86672500D02*
X127564285Y-86708214D01*
X127564285Y-86708214D02*
X127635714Y-86708214D01*
X127635714Y-86708214D02*
X127707143Y-86672500D01*
X127707143Y-86672500D02*
X127742857Y-86636785D01*
X127742857Y-86636785D02*
X127778571Y-86565357D01*
X127778571Y-86565357D02*
X127814285Y-86422500D01*
X127814285Y-86422500D02*
X127814285Y-86243928D01*
X127814285Y-86243928D02*
X127778571Y-86101071D01*
X127778571Y-86101071D02*
X127742857Y-86029642D01*
X127742857Y-86029642D02*
X127707143Y-85993928D01*
X127707143Y-85993928D02*
X127635714Y-85958214D01*
X127099999Y-86029642D02*
X127064285Y-85993928D01*
X127064285Y-85993928D02*
X126992857Y-85958214D01*
X126992857Y-85958214D02*
X126814285Y-85958214D01*
X126814285Y-85958214D02*
X126742857Y-85993928D01*
X126742857Y-85993928D02*
X126707142Y-86029642D01*
X126707142Y-86029642D02*
X126671428Y-86101071D01*
X126671428Y-86101071D02*
X126671428Y-86172500D01*
X126671428Y-86172500D02*
X126707142Y-86279642D01*
X126707142Y-86279642D02*
X127135714Y-86708214D01*
X127135714Y-86708214D02*
X126671428Y-86708214D01*
X125992856Y-85958214D02*
X126349999Y-85958214D01*
X126349999Y-85958214D02*
X126385713Y-86315357D01*
X126385713Y-86315357D02*
X126349999Y-86279642D01*
X126349999Y-86279642D02*
X126278571Y-86243928D01*
X126278571Y-86243928D02*
X126099999Y-86243928D01*
X126099999Y-86243928D02*
X126028571Y-86279642D01*
X126028571Y-86279642D02*
X125992856Y-86315357D01*
X125992856Y-86315357D02*
X125957142Y-86386785D01*
X125957142Y-86386785D02*
X125957142Y-86565357D01*
X125957142Y-86565357D02*
X125992856Y-86636785D01*
X125992856Y-86636785D02*
X126028571Y-86672500D01*
X126028571Y-86672500D02*
X126099999Y-86708214D01*
X126099999Y-86708214D02*
X126278571Y-86708214D01*
X126278571Y-86708214D02*
X126349999Y-86672500D01*
X126349999Y-86672500D02*
X126385713Y-86636785D01*
D12*
%TO.C,IC1*%
X131836291Y-81879566D02*
X131836291Y-80609566D01*
X130505814Y-81758613D02*
X130566290Y-81819090D01*
X130566290Y-81819090D02*
X130747719Y-81879566D01*
X130747719Y-81879566D02*
X130868671Y-81879566D01*
X130868671Y-81879566D02*
X131050100Y-81819090D01*
X131050100Y-81819090D02*
X131171052Y-81698137D01*
X131171052Y-81698137D02*
X131231529Y-81577185D01*
X131231529Y-81577185D02*
X131292005Y-81335280D01*
X131292005Y-81335280D02*
X131292005Y-81153851D01*
X131292005Y-81153851D02*
X131231529Y-80911947D01*
X131231529Y-80911947D02*
X131171052Y-80790994D01*
X131171052Y-80790994D02*
X131050100Y-80670042D01*
X131050100Y-80670042D02*
X130868671Y-80609566D01*
X130868671Y-80609566D02*
X130747719Y-80609566D01*
X130747719Y-80609566D02*
X130566290Y-80670042D01*
X130566290Y-80670042D02*
X130505814Y-80730518D01*
X129296290Y-81879566D02*
X130022005Y-81879566D01*
X129659148Y-81879566D02*
X129659148Y-80609566D01*
X129659148Y-80609566D02*
X129780100Y-80790994D01*
X129780100Y-80790994D02*
X129901052Y-80911947D01*
X129901052Y-80911947D02*
X130022005Y-80972423D01*
D10*
%TO.C,C2*%
X122910505Y-82719514D02*
X122859997Y-82770022D01*
X122859997Y-82770022D02*
X122834743Y-82845784D01*
X122834743Y-82845784D02*
X122834743Y-82896291D01*
X122834743Y-82896291D02*
X122859997Y-82972053D01*
X122859997Y-82972053D02*
X122935759Y-83098322D01*
X122935759Y-83098322D02*
X123062028Y-83224591D01*
X123062028Y-83224591D02*
X123188297Y-83300352D01*
X123188297Y-83300352D02*
X123264058Y-83325606D01*
X123264058Y-83325606D02*
X123314566Y-83325606D01*
X123314566Y-83325606D02*
X123390327Y-83300352D01*
X123390327Y-83300352D02*
X123440835Y-83249845D01*
X123440835Y-83249845D02*
X123466089Y-83174083D01*
X123466089Y-83174083D02*
X123466089Y-83123576D01*
X123466089Y-83123576D02*
X123440835Y-83047814D01*
X123440835Y-83047814D02*
X123365074Y-82921545D01*
X123365074Y-82921545D02*
X123238805Y-82795276D01*
X123238805Y-82795276D02*
X123112535Y-82719514D01*
X123112535Y-82719514D02*
X123036774Y-82694261D01*
X123036774Y-82694261D02*
X122986266Y-82694261D01*
X122986266Y-82694261D02*
X122910505Y-82719514D01*
X122986266Y-83603398D02*
X122986266Y-83653906D01*
X122986266Y-83653906D02*
X123036774Y-83653906D01*
X123036774Y-83653906D02*
X123036774Y-83603398D01*
X123036774Y-83603398D02*
X122986266Y-83603398D01*
X122986266Y-83603398D02*
X123036774Y-83653906D01*
X122506444Y-84184236D02*
X122809489Y-83881190D01*
X122657966Y-84032713D02*
X122127636Y-83502383D01*
X122127636Y-83502383D02*
X122253905Y-83527637D01*
X122253905Y-83527637D02*
X122354921Y-83527637D01*
X122354921Y-83527637D02*
X122430682Y-83502383D01*
X121698321Y-84285251D02*
X122051875Y-84638805D01*
X121925606Y-84057967D02*
X122203398Y-84335759D01*
X122203398Y-84335759D02*
X122228651Y-84411521D01*
X122228651Y-84411521D02*
X122203398Y-84487282D01*
X122203398Y-84487282D02*
X122127636Y-84563043D01*
X122127636Y-84563043D02*
X122051875Y-84588297D01*
X122051875Y-84588297D02*
X122001367Y-84588297D01*
X121521545Y-84462028D02*
X121319514Y-84664058D01*
X121799337Y-84891343D02*
X121344768Y-84436774D01*
X121344768Y-84436774D02*
X121269007Y-84411520D01*
X121269007Y-84411520D02*
X121193245Y-84436774D01*
X121193245Y-84436774D02*
X121142738Y-84487282D01*
%TO.C,R1*%
X125511521Y-83879160D02*
X125814567Y-83576114D01*
X125663044Y-83727637D02*
X125132714Y-83197307D01*
X125132714Y-83197307D02*
X125258983Y-83222561D01*
X125258983Y-83222561D02*
X125359998Y-83222561D01*
X125359998Y-83222561D02*
X125435759Y-83197307D01*
X124652891Y-83677129D02*
X124602383Y-83727637D01*
X124602383Y-83727637D02*
X124577129Y-83803399D01*
X124577129Y-83803399D02*
X124577129Y-83853906D01*
X124577129Y-83853906D02*
X124602383Y-83929668D01*
X124602383Y-83929668D02*
X124678145Y-84055937D01*
X124678145Y-84055937D02*
X124804414Y-84182206D01*
X124804414Y-84182206D02*
X124930683Y-84257967D01*
X124930683Y-84257967D02*
X125006444Y-84283221D01*
X125006444Y-84283221D02*
X125056952Y-84283221D01*
X125056952Y-84283221D02*
X125132713Y-84257967D01*
X125132713Y-84257967D02*
X125183221Y-84207460D01*
X125183221Y-84207460D02*
X125208475Y-84131698D01*
X125208475Y-84131698D02*
X125208475Y-84081191D01*
X125208475Y-84081191D02*
X125183221Y-84005429D01*
X125183221Y-84005429D02*
X125107460Y-83879160D01*
X125107460Y-83879160D02*
X124981191Y-83752891D01*
X124981191Y-83752891D02*
X124854921Y-83677129D01*
X124854921Y-83677129D02*
X124779160Y-83651876D01*
X124779160Y-83651876D02*
X124728652Y-83651876D01*
X124728652Y-83651876D02*
X124652891Y-83677129D01*
X124779160Y-84611521D02*
X124248830Y-84081191D01*
X124476114Y-84914567D02*
X124400353Y-84384236D01*
X123945784Y-84384236D02*
X124551875Y-84384236D01*
%TO.C,R3*%
X120262029Y-82767992D02*
X119933729Y-83096291D01*
X119933729Y-83096291D02*
X120312536Y-83121545D01*
X120312536Y-83121545D02*
X120236775Y-83197307D01*
X120236775Y-83197307D02*
X120211521Y-83273068D01*
X120211521Y-83273068D02*
X120211521Y-83323576D01*
X120211521Y-83323576D02*
X120236775Y-83399337D01*
X120236775Y-83399337D02*
X120363044Y-83525606D01*
X120363044Y-83525606D02*
X120438805Y-83550860D01*
X120438805Y-83550860D02*
X120489313Y-83550860D01*
X120489313Y-83550860D02*
X120565074Y-83525606D01*
X120565074Y-83525606D02*
X120716597Y-83374083D01*
X120716597Y-83374083D02*
X120741851Y-83298322D01*
X120741851Y-83298322D02*
X120741851Y-83247814D01*
X119756952Y-83273068D02*
X119428652Y-83601368D01*
X119428652Y-83601368D02*
X119807460Y-83626622D01*
X119807460Y-83626622D02*
X119731698Y-83702383D01*
X119731698Y-83702383D02*
X119706444Y-83778145D01*
X119706444Y-83778145D02*
X119706444Y-83828652D01*
X119706444Y-83828652D02*
X119731698Y-83904414D01*
X119731698Y-83904414D02*
X119857967Y-84030683D01*
X119857967Y-84030683D02*
X119933729Y-84055937D01*
X119933729Y-84055937D02*
X119984236Y-84055937D01*
X119984236Y-84055937D02*
X120059998Y-84030683D01*
X120059998Y-84030683D02*
X120211521Y-83879160D01*
X120211521Y-83879160D02*
X120236775Y-83803398D01*
X120236775Y-83803398D02*
X120236775Y-83752891D01*
X119100353Y-83929668D02*
X119049845Y-83980175D01*
X119049845Y-83980175D02*
X119024591Y-84055937D01*
X119024591Y-84055937D02*
X119024591Y-84106444D01*
X119024591Y-84106444D02*
X119049845Y-84182206D01*
X119049845Y-84182206D02*
X119125607Y-84308475D01*
X119125607Y-84308475D02*
X119251876Y-84434744D01*
X119251876Y-84434744D02*
X119378145Y-84510505D01*
X119378145Y-84510505D02*
X119453906Y-84535759D01*
X119453906Y-84535759D02*
X119504414Y-84535759D01*
X119504414Y-84535759D02*
X119580175Y-84510505D01*
X119580175Y-84510505D02*
X119630683Y-84459998D01*
X119630683Y-84459998D02*
X119655937Y-84384236D01*
X119655937Y-84384236D02*
X119655937Y-84333729D01*
X119655937Y-84333729D02*
X119630683Y-84257967D01*
X119630683Y-84257967D02*
X119554921Y-84131698D01*
X119554921Y-84131698D02*
X119428652Y-84005429D01*
X119428652Y-84005429D02*
X119302383Y-83929668D01*
X119302383Y-83929668D02*
X119226622Y-83904414D01*
X119226622Y-83904414D02*
X119176114Y-83904414D01*
X119176114Y-83904414D02*
X119100353Y-83929668D01*
X118923576Y-85167105D02*
X118847814Y-84737790D01*
X119226622Y-84864059D02*
X118696291Y-84333729D01*
X118696291Y-84333729D02*
X118494261Y-84535759D01*
X118494261Y-84535759D02*
X118469007Y-84611521D01*
X118469007Y-84611521D02*
X118469007Y-84662029D01*
X118469007Y-84662029D02*
X118494261Y-84737790D01*
X118494261Y-84737790D02*
X118570022Y-84813551D01*
X118570022Y-84813551D02*
X118645784Y-84838805D01*
X118645784Y-84838805D02*
X118696291Y-84838805D01*
X118696291Y-84838805D02*
X118772053Y-84813551D01*
X118772053Y-84813551D02*
X118974083Y-84611521D01*
D13*
%TO.C,IC1*%
X133346529Y-83392040D02*
X128346529Y-83392040D01*
X133346529Y-79192040D02*
X128346529Y-79192040D01*
D14*
X127846529Y-82792040D02*
X127846529Y-82792040D01*
X127746529Y-82792040D02*
X127746529Y-82792040D01*
X127746529Y-82792040D02*
G75*
G03*
X127846529Y-82792040I50000J0D01*
G01*
X127846529Y-82792040D02*
G75*
G03*
X127746529Y-82792040I-50000J0D01*
G01*
D15*
%TO.C,C2*%
X122026069Y-85152682D02*
X122232922Y-84945829D01*
X122747318Y-85873931D02*
X122954171Y-85667078D01*
%TO.C,R1*%
X125739700Y-85599226D02*
X125379466Y-85959460D01*
X125000774Y-84860300D02*
X124640540Y-85220534D01*
%TO.C,R3*%
X119340540Y-85220534D02*
X119700774Y-84860300D01*
X120079466Y-85959460D02*
X120439700Y-85599226D01*
%TD*%
M02*
