M48
; DRILL file {KiCad 7.0.1} date Wed Mar  5 17:14:19 2025
; FORMAT={-:-/ absolute / inch / decimal}
; #@! TF.CreationDate,2025-03-05T17:14:19+01:00
; #@! TF.GenerationSoftware,Kicad,Pcbnew,7.0.1
; #@! TF.FileFunction,Plated,1,2,PTH
FMAT,2
INCH
; #@! TA.AperFunction,Plated,PTH,ViaDrill
T1C0.0157
; #@! TA.AperFunction,Plated,PTH,ComponentDrill
T2C0.0291
; #@! TA.AperFunction,Plated,PTH,ComponentDrill
T3C0.0295
%
G90
G05
T1
X4.3898Y-3.2441
X4.5079Y-3.1102
X4.5079Y-3.3858
X4.6181Y-3.2441
X4.6375Y-3.4024
X4.7283Y-3.2874
X4.7992Y-3.2402
X4.9606Y-3.2323
X4.9685Y-3.0945
X5.0Y-3.4252
X5.0354Y-3.3228
X5.1614Y-3.0984
X5.167Y-3.4198
X5.2493Y-3.4214
X5.2598Y-3.3307
T2
X5.0727Y-3.1513
X5.0727Y-3.2497
X5.2302Y-3.1513
X5.2302Y-3.2497
T3
X4.7254Y-3.1504
X4.8042Y-3.1504
X4.8829Y-3.1504
T0
M30
