0
SECTION
2
HEADER
9
$INSUNITS
70
4
9
$ACADVER
1
AC1014
9
$HANDSEED
5
FFFF
0
ENDSEC
0
SECTION
2
TABLES
0
TABLE
2
VPORT
5
8
100
AcDbSymbolTable
0
ENDTAB
0
TABLE
2
LTYPE
5
5
100
AcDbSymbolTable
0
LTYPE
5
14
100
AcDbSymbolTableRecord
100
AcDbLinetypeTableRecord
2
BYBLOCK
70
0
0
LTYPE
5
15
100
AcDbSymbolTableRecord
100
AcDbLinetypeTableRecord
2
BYLAYER
70
0
0
ENDTAB
0
TABLE
2
LAYER
5
2
100
AcDbSymbolTable
70
2
0
LAYER
5
50
100
AcDbSymbolTableRecord
100
AcDbLayerTableRecord
2
0
70
0
6
CONTINUOUS
0
ENDTAB
0
TABLE
2
STYLE
5
3
100
AcDbSymbolTable
70
1
0
STYLE
5
11
100
AcDbSymbolTableRecord
100
AcDbTextStyleTableRecord
2
STANDARD
70
0
0
ENDTAB
0
TABLE
2
VIEW
5
6
100
AcDbSymbolTable
70
0
0
ENDTAB
0
TABLE
2
UCS
5
7
100
AcDbSymbolTable
70
0
0
ENDTAB
0
TABLE
2
APPID
5
9
100
AcDbSymbolTable
70
2
0
APPID
5
12
100
AcDbSymbolTableRecord
100
AcDbRegAppTableRecord
2
ACAD
70
0
0
ENDTAB
0
TABLE
2
DIMSTYLE
5
A
100
AcDbSymbolTable
70
1
0
ENDTAB
0
TABLE
2
BLOCK_RECORD
5
1
100
AcDbSymbolTable
70
1
0
BLOCK_RECORD
5
1F
100
AcDbSymbolTableRecord
100
AcDbBlockTableRecord
2
*MODEL_SPACE
0
BLOCK_RECORD
5
1B
100
AcDbSymbolTableRecord
100
AcDbBlockTableRecord
2
*PAPER_SPACE
0
ENDTAB
0
ENDSEC
0
SECTION
2
BLOCKS
0
BLOCK
5
20
100
AcDbEntity
100
AcDbBlockBegin
2
*MODEL_SPACE
0
ENDBLK
5
21
100
AcDbEntity
100
AcDbBlockEnd
0
BLOCK
5
1C
100
AcDbEntity
100
AcDbBlockBegin
2
*PAPER_SPACE
0
ENDBLK
5
1D
100
AcDbEntity
100
AcDbBlockEnd
0
ENDSEC
0
SECTION
2
ENTITIES
0
LWPOLYLINE
5
100
100
AcDbEntity
8
0
100
AcDbPolyline
90
4
70
1
43
0.0
10
227.05630710376988
20
375.00000000001108
10
227.05630710382485
20
-94.99999999999261
10
-197.94326849145918
20
-94.99999999999261
10
-197.94326849140413
20
375.00000000001108
0
CIRCLE
5
101
100
AcDbEntity
8
0
100
AcDbCircle
10
14.556519306182842
20
365.00000000001108
30
0
40
2.1500000000000101
210
0
220
0
230
1
0
CIRCLE
5
102
100
AcDbEntity
8
0
100
AcDbCircle
10
-187.94326849143218
20
140.00000000000799
30
0
40
2.1500000000000301
210
0
220
0
230
1
0
CIRCLE
5
103
100
AcDbEntity
8
0
100
AcDbCircle
10
217.05630710379785
20
140.00000000000799
30
0
40
2.1499999999999999
210
0
220
0
230
1
0
CIRCLE
5
104
100
AcDbEntity
8
0
100
AcDbCircle
10
14.556519306182842
20
-84.99999999999261
30
0
40
2.2000000000000002
210
0
220
0
230
1
0
CIRCLE
5
105
100
AcDbEntity
8
0
100
AcDbCircle
10
14.556731508585017
20
265.000000000005
30
0
40
2.1000000000000001
210
0
220
0
230
1
0
CIRCLE
5
106
100
AcDbEntity
8
0
100
AcDbCircle
10
114.55673150858487
20
265.00000000000102
30
0
40
2.0999999999999899
210
0
220
0
230
1
0
CIRCLE
5
107
100
AcDbEntity
8
0
100
AcDbCircle
10
-85.443268491414955
20
265.00000000000801
30
0
40
2.0999999999999899
210
0
220
0
230
1
0
CIRCLE
5
108
100
AcDbEntity
8
0
100
AcDbCircle
10
217.0553071038259
20
-85.011390976391198
30
0
40
2.1499999999999999
210
0
220
0
230
1
0
CIRCLE
5
109
100
AcDbEntity
8
0
100
AcDbCircle
10
217.2051569067969
20
364.83009829783498
30
0
40
2.1499999999999999
210
0
220
0
230
1
0
CIRCLE
5
110
100
AcDbEntity
8
0
100
AcDbCircle
10
-150.49326849140414
20
365.00000000001
30
0
40
2.2000000000000002
210
0
220
0
230
1
0
CIRCLE
5
111
100
AcDbEntity
8
0
100
AcDbCircle
10
-105.39326849140416
20
365.00000000001
30
0
40
2.1999999999999802
210
0
220
0
230
1
0
CIRCLE
5
112
100
AcDbEntity
8
0
100
AcDbCircle
10
-187.94326849145517
20
14.880246251548996
30
0
40
2.2000000000000002
210
0
220
0
230
1
0
SPLINE
5
113
100
AcDbEntity
8
0
100
AcDbSpline
70
2
71
3
72
20
73
16
74
0
42
0.000000001
43
0.0000000001
44
0.0000000001
40
-3.14159265358979
40
-3.14159265358979
40
-3.14159265358979
40
-3.14159265358979
40
-2.69279370307697
40
-2.2439947525641402
40
-1.3463968515384801
40
-1.0471975511966001
40
-0.74799825085471305
40
-0.44879895051282798
40
-0.14959965017094301
40
0.14959965017094301
40
0.44879895051282798
40
1.3463968515384801
40
2.2439947525641402
40
2.69279370307697
40
3.14159265358979
40
3.14159265358979
40
3.14159265358979
40
3.14159265358979
10
-162.48368271917215
20
298.00000000000898
30
0
10
-162.48368271917215
20
297.47533805243103
30
0
10
-162.83132296305718
20
296.43811772302104
30
0
10
-164.58447488414214
20
294.89560014141802
30
0
10
-167.09968855930015
20
294.50165293718101
30
0
10
-169.14142703770213
20
295.07084812183501
30
0
10
-170.19278272298718
20
295.66018823107407
30
0
10
-170.98284055984215
20
296.47340985934699
30
0
10
-171.42145112343815
20
297.46576959901603
30
0
10
-171.42114861189913
20
298.53367222557603
30
0
10
-170.69264798489613
20
300.190920219676
30
0
10
-168.01934276484215
20
301.64667093012298
30
0
10
-164.58338057411817
20
301.10262485694807
30
0
10
-162.83213708629415
20
299.56255601605608
30
0
10
-162.48368271917215
20
298.52466194758608
30
0
10
-162.48368271917215
20
298.00000000000898
30
0
0
CIRCLE
5
114
100
AcDbEntity
8
0
100
AcDbCircle
10
-187.94326849146017
20
-85.011390976391397
30
0
40
2.1499999999999999
210
0
220
0
230
1
0
CIRCLE
5
115
100
AcDbEntity
8
0
100
AcDbCircle
10
179.60630710376986
20
365.00000000001
30
0
40
2.2000000000000002
210
0
220
0
230
1
0
CIRCLE
5
116
100
AcDbEntity
8
0
100
AcDbCircle
10
-188.09211829443115
20
364.83009829783498
30
0
40
2.1499999999999999
210
0
220
0
230
1
0
CIRCLE
5
117
100
AcDbEntity
8
0
100
AcDbCircle
10
134.50630710376987
20
365.00000000001
30
0
40
2.1999999999999802
210
0
220
0
230
1
0
CIRCLE
5
118
100
AcDbEntity
8
0
100
AcDbCircle
10
-187.94326849145517
20
-63.3197537484509
30
0
40
2.2000000000000002
210
0
220
0
230
1
0
CIRCLE
5
119
100
AcDbEntity
8
0
100
AcDbCircle
10
-169.44348069381715
20
291.99999982119499
30
0
40
1.6000000000000003
210
0
220
0
230
1
0
CIRCLE
5
120
100
AcDbEntity
8
0
100
AcDbCircle
10
44.556519306182864
20
315.00000000001
30
0
40
29.000000000000004
210
0
220
-0
230
1
0
CIRCLE
5
121
100
AcDbEntity
8
0
100
AcDbCircle
10
19.556519306182981
20
290.00000000001
30
0
40
2.2000000000000002
210
0
220
-0
230
1
0
CIRCLE
5
122
100
AcDbEntity
8
0
100
AcDbCircle
10
9.5565193061830911
20
290.00000000001103
30
0
40
2.2000000000000002
210
0
220
-0
230
1
0
CIRCLE
5
123
100
AcDbEntity
8
0
100
AcDbCircle
10
9.5565193061826115
20
340.00000000001108
30
0
40
2.2000000000000002
210
0
220
-0
230
1
0
CIRCLE
5
124
100
AcDbEntity
8
0
100
AcDbCircle
10
19.556519306182839
20
340.00000000001
30
0
40
2.2000000000000002
210
0
220
-0
230
1
0
CIRCLE
5
125
100
AcDbEntity
8
0
100
AcDbCircle
10
-15.44348069381714
20
315.00000000001
30
0
40
28.999999999999901
210
0
220
0
230
1
0
CIRCLE
5
126
100
AcDbEntity
8
0
100
AcDbCircle
10
-40.443480693817044
20
290.00000000001
30
0
40
2.2000000000000099
210
0
220
0
230
1
0
CIRCLE
5
127
100
AcDbEntity
8
0
100
AcDbCircle
10
69.556519306183063
20
290.00000000001
30
0
40
2.2000000000000002
210
0
220
0
230
1
0
CIRCLE
5
128
100
AcDbEntity
8
0
100
AcDbCircle
10
-40.443480693817136
20
340.00000000001
30
0
40
2.2000000000000099
210
0
220
0
230
1
0
CIRCLE
5
129
100
AcDbEntity
8
0
100
AcDbCircle
10
69.556519306182565
20
340.00000000001108
30
0
40
2.2000000000000099
210
0
220
0
230
1
0
ENDSEC
0
SECTION
2
OBJECTS
0
DICTIONARY
5
C
100
AcDbDictionary
3
ACAD_GROUP
350
D
3
ACAD_MLINESTYLE
350
17
0
DICTIONARY
5
D
100
AcDbDictionary
0
DICTIONARY
5
1A
330
C
100
AcDbDictionary
0
DICTIONARY
5
17
100
AcDbDictionary
0
ENDSEC
0
EOF
